<?xml version="1.0" encoding="utf-8" standalone="no"?>
<!DOCTYPE svg PUBLIC "-//W3C//DTD SVG 1.1//EN"
  "http://www.w3.org/Graphics/SVG/1.1/DTD/svg11.dtd">
<svg xmlns:xlink="http://www.w3.org/1999/xlink" width="1008pt" height="504pt" viewBox="0 0 1008 504" xmlns="http://www.w3.org/2000/svg" version="1.1">
 <metadata>
  <rdf:RDF xmlns:dc="http://purl.org/dc/elements/1.1/" xmlns:cc="http://creativecommons.org/ns#" xmlns:rdf="http://www.w3.org/1999/02/22-rdf-syntax-ns#">
   <cc:Work>
    <dc:type rdf:resource="http://purl.org/dc/dcmitype/StillImage"/>
    <dc:date>2024-07-16T09:31:14.238036</dc:date>
    <dc:format>image/svg+xml</dc:format>
    <dc:creator>
     <cc:Agent>
      <dc:title>Matplotlib v3.5.1, https://matplotlib.org/</dc:title>
     </cc:Agent>
    </dc:creator>
   </cc:Work>
  </rdf:RDF>
 </metadata>
 <defs>
  <style type="text/css">*{stroke-linejoin: round; stroke-linecap: butt}</style>
 </defs>
 <g id="figure_1">
  <g id="patch_1">
   <path d="M 0 504 
L 1008 504 
L 1008 0 
L 0 0 
z
" style="fill: #ffffff"/>
  </g>
  <g id="axes_1">
   <g id="patch_2">
    <path d="M 44.57 462.04 
L 997.2 462.04 
L 997.2 26.88 
L 44.57 26.88 
z
" style="fill: #ffffff"/>
   </g>
   <g id="matplotlib.axis_1">
    <g id="xtick_1">
     <g id="line2d_1">
      <defs>
       <path id="m8606754e71" d="M 0 0 
L 0 3.5 
" style="stroke: #000000; stroke-width: 0.8"/>
      </defs>
      <g>
       <use xlink:href="#m8606754e71" x="87.871364" y="462.04" style="stroke: #000000; stroke-width: 0.8"/>
      </g>
     </g>
     <g id="text_1">
      <!-- 0 -->
      <g transform="translate(84.690114 476.638438)scale(0.1 -0.1)">
       <defs>
        <path id="DejaVuSans-30" d="M 2034 4250 
Q 1547 4250 1301 3770 
Q 1056 3291 1056 2328 
Q 1056 1369 1301 889 
Q 1547 409 2034 409 
Q 2525 409 2770 889 
Q 3016 1369 3016 2328 
Q 3016 3291 2770 3770 
Q 2525 4250 2034 4250 
z
M 2034 4750 
Q 2819 4750 3233 4129 
Q 3647 3509 3647 2328 
Q 3647 1150 3233 529 
Q 2819 -91 2034 -91 
Q 1250 -91 836 529 
Q 422 1150 422 2328 
Q 422 3509 836 4129 
Q 1250 4750 2034 4750 
z
" transform="scale(0.015625)"/>
       </defs>
       <use xlink:href="#DejaVuSans-30"/>
      </g>
     </g>
    </g>
    <g id="xtick_2">
     <g id="line2d_2">
      <g>
       <use xlink:href="#m8606754e71" x="197.82493" y="462.04" style="stroke: #000000; stroke-width: 0.8"/>
      </g>
     </g>
     <g id="text_2">
      <!-- 10000 -->
      <g transform="translate(181.91868 476.638438)scale(0.1 -0.1)">
       <defs>
        <path id="DejaVuSans-31" d="M 794 531 
L 1825 531 
L 1825 4091 
L 703 3866 
L 703 4441 
L 1819 4666 
L 2450 4666 
L 2450 531 
L 3481 531 
L 3481 0 
L 794 0 
L 794 531 
z
" transform="scale(0.015625)"/>
       </defs>
       <use xlink:href="#DejaVuSans-31"/>
       <use xlink:href="#DejaVuSans-30" x="63.623047"/>
       <use xlink:href="#DejaVuSans-30" x="127.246094"/>
       <use xlink:href="#DejaVuSans-30" x="190.869141"/>
       <use xlink:href="#DejaVuSans-30" x="254.492188"/>
      </g>
     </g>
    </g>
    <g id="xtick_3">
     <g id="line2d_3">
      <g>
       <use xlink:href="#m8606754e71" x="307.778496" y="462.04" style="stroke: #000000; stroke-width: 0.8"/>
      </g>
     </g>
     <g id="text_3">
      <!-- 20000 -->
      <g transform="translate(291.872246 476.638438)scale(0.1 -0.1)">
       <defs>
        <path id="DejaVuSans-32" d="M 1228 531 
L 3431 531 
L 3431 0 
L 469 0 
L 469 531 
Q 828 903 1448 1529 
Q 2069 2156 2228 2338 
Q 2531 2678 2651 2914 
Q 2772 3150 2772 3378 
Q 2772 3750 2511 3984 
Q 2250 4219 1831 4219 
Q 1534 4219 1204 4116 
Q 875 4013 500 3803 
L 500 4441 
Q 881 4594 1212 4672 
Q 1544 4750 1819 4750 
Q 2544 4750 2975 4387 
Q 3406 4025 3406 3419 
Q 3406 3131 3298 2873 
Q 3191 2616 2906 2266 
Q 2828 2175 2409 1742 
Q 1991 1309 1228 531 
z
" transform="scale(0.015625)"/>
       </defs>
       <use xlink:href="#DejaVuSans-32"/>
       <use xlink:href="#DejaVuSans-30" x="63.623047"/>
       <use xlink:href="#DejaVuSans-30" x="127.246094"/>
       <use xlink:href="#DejaVuSans-30" x="190.869141"/>
       <use xlink:href="#DejaVuSans-30" x="254.492188"/>
      </g>
     </g>
    </g>
    <g id="xtick_4">
     <g id="line2d_4">
      <g>
       <use xlink:href="#m8606754e71" x="417.732062" y="462.04" style="stroke: #000000; stroke-width: 0.8"/>
      </g>
     </g>
     <g id="text_4">
      <!-- 30000 -->
      <g transform="translate(401.825812 476.638438)scale(0.1 -0.1)">
       <defs>
        <path id="DejaVuSans-33" d="M 2597 2516 
Q 3050 2419 3304 2112 
Q 3559 1806 3559 1356 
Q 3559 666 3084 287 
Q 2609 -91 1734 -91 
Q 1441 -91 1130 -33 
Q 819 25 488 141 
L 488 750 
Q 750 597 1062 519 
Q 1375 441 1716 441 
Q 2309 441 2620 675 
Q 2931 909 2931 1356 
Q 2931 1769 2642 2001 
Q 2353 2234 1838 2234 
L 1294 2234 
L 1294 2753 
L 1863 2753 
Q 2328 2753 2575 2939 
Q 2822 3125 2822 3475 
Q 2822 3834 2567 4026 
Q 2313 4219 1838 4219 
Q 1578 4219 1281 4162 
Q 984 4106 628 3988 
L 628 4550 
Q 988 4650 1302 4700 
Q 1616 4750 1894 4750 
Q 2613 4750 3031 4423 
Q 3450 4097 3450 3541 
Q 3450 3153 3228 2886 
Q 3006 2619 2597 2516 
z
" transform="scale(0.015625)"/>
       </defs>
       <use xlink:href="#DejaVuSans-33"/>
       <use xlink:href="#DejaVuSans-30" x="63.623047"/>
       <use xlink:href="#DejaVuSans-30" x="127.246094"/>
       <use xlink:href="#DejaVuSans-30" x="190.869141"/>
       <use xlink:href="#DejaVuSans-30" x="254.492188"/>
      </g>
     </g>
    </g>
    <g id="xtick_5">
     <g id="line2d_5">
      <g>
       <use xlink:href="#m8606754e71" x="527.685628" y="462.04" style="stroke: #000000; stroke-width: 0.8"/>
      </g>
     </g>
     <g id="text_5">
      <!-- 40000 -->
      <g transform="translate(511.779378 476.638438)scale(0.1 -0.1)">
       <defs>
        <path id="DejaVuSans-34" d="M 2419 4116 
L 825 1625 
L 2419 1625 
L 2419 4116 
z
M 2253 4666 
L 3047 4666 
L 3047 1625 
L 3713 1625 
L 3713 1100 
L 3047 1100 
L 3047 0 
L 2419 0 
L 2419 1100 
L 313 1100 
L 313 1709 
L 2253 4666 
z
" transform="scale(0.015625)"/>
       </defs>
       <use xlink:href="#DejaVuSans-34"/>
       <use xlink:href="#DejaVuSans-30" x="63.623047"/>
       <use xlink:href="#DejaVuSans-30" x="127.246094"/>
       <use xlink:href="#DejaVuSans-30" x="190.869141"/>
       <use xlink:href="#DejaVuSans-30" x="254.492188"/>
      </g>
     </g>
    </g>
    <g id="xtick_6">
     <g id="line2d_6">
      <g>
       <use xlink:href="#m8606754e71" x="637.639194" y="462.04" style="stroke: #000000; stroke-width: 0.8"/>
      </g>
     </g>
     <g id="text_6">
      <!-- 50000 -->
      <g transform="translate(621.732944 476.638438)scale(0.1 -0.1)">
       <defs>
        <path id="DejaVuSans-35" d="M 691 4666 
L 3169 4666 
L 3169 4134 
L 1269 4134 
L 1269 2991 
Q 1406 3038 1543 3061 
Q 1681 3084 1819 3084 
Q 2600 3084 3056 2656 
Q 3513 2228 3513 1497 
Q 3513 744 3044 326 
Q 2575 -91 1722 -91 
Q 1428 -91 1123 -41 
Q 819 9 494 109 
L 494 744 
Q 775 591 1075 516 
Q 1375 441 1709 441 
Q 2250 441 2565 725 
Q 2881 1009 2881 1497 
Q 2881 1984 2565 2268 
Q 2250 2553 1709 2553 
Q 1456 2553 1204 2497 
Q 953 2441 691 2322 
L 691 4666 
z
" transform="scale(0.015625)"/>
       </defs>
       <use xlink:href="#DejaVuSans-35"/>
       <use xlink:href="#DejaVuSans-30" x="63.623047"/>
       <use xlink:href="#DejaVuSans-30" x="127.246094"/>
       <use xlink:href="#DejaVuSans-30" x="190.869141"/>
       <use xlink:href="#DejaVuSans-30" x="254.492188"/>
      </g>
     </g>
    </g>
    <g id="xtick_7">
     <g id="line2d_7">
      <g>
       <use xlink:href="#m8606754e71" x="747.59276" y="462.04" style="stroke: #000000; stroke-width: 0.8"/>
      </g>
     </g>
     <g id="text_7">
      <!-- 60000 -->
      <g transform="translate(731.68651 476.638438)scale(0.1 -0.1)">
       <defs>
        <path id="DejaVuSans-36" d="M 2113 2584 
Q 1688 2584 1439 2293 
Q 1191 2003 1191 1497 
Q 1191 994 1439 701 
Q 1688 409 2113 409 
Q 2538 409 2786 701 
Q 3034 994 3034 1497 
Q 3034 2003 2786 2293 
Q 2538 2584 2113 2584 
z
M 3366 4563 
L 3366 3988 
Q 3128 4100 2886 4159 
Q 2644 4219 2406 4219 
Q 1781 4219 1451 3797 
Q 1122 3375 1075 2522 
Q 1259 2794 1537 2939 
Q 1816 3084 2150 3084 
Q 2853 3084 3261 2657 
Q 3669 2231 3669 1497 
Q 3669 778 3244 343 
Q 2819 -91 2113 -91 
Q 1303 -91 875 529 
Q 447 1150 447 2328 
Q 447 3434 972 4092 
Q 1497 4750 2381 4750 
Q 2619 4750 2861 4703 
Q 3103 4656 3366 4563 
z
" transform="scale(0.015625)"/>
       </defs>
       <use xlink:href="#DejaVuSans-36"/>
       <use xlink:href="#DejaVuSans-30" x="63.623047"/>
       <use xlink:href="#DejaVuSans-30" x="127.246094"/>
       <use xlink:href="#DejaVuSans-30" x="190.869141"/>
       <use xlink:href="#DejaVuSans-30" x="254.492188"/>
      </g>
     </g>
    </g>
    <g id="xtick_8">
     <g id="line2d_8">
      <g>
       <use xlink:href="#m8606754e71" x="857.546326" y="462.04" style="stroke: #000000; stroke-width: 0.8"/>
      </g>
     </g>
     <g id="text_8">
      <!-- 70000 -->
      <g transform="translate(841.640076 476.638438)scale(0.1 -0.1)">
       <defs>
        <path id="DejaVuSans-37" d="M 525 4666 
L 3525 4666 
L 3525 4397 
L 1831 0 
L 1172 0 
L 2766 4134 
L 525 4134 
L 525 4666 
z
" transform="scale(0.015625)"/>
       </defs>
       <use xlink:href="#DejaVuSans-37"/>
       <use xlink:href="#DejaVuSans-30" x="63.623047"/>
       <use xlink:href="#DejaVuSans-30" x="127.246094"/>
       <use xlink:href="#DejaVuSans-30" x="190.869141"/>
       <use xlink:href="#DejaVuSans-30" x="254.492188"/>
      </g>
     </g>
    </g>
    <g id="xtick_9">
     <g id="line2d_9">
      <g>
       <use xlink:href="#m8606754e71" x="967.499892" y="462.04" style="stroke: #000000; stroke-width: 0.8"/>
      </g>
     </g>
     <g id="text_9">
      <!-- 80000 -->
      <g transform="translate(951.593642 476.638438)scale(0.1 -0.1)">
       <defs>
        <path id="DejaVuSans-38" d="M 2034 2216 
Q 1584 2216 1326 1975 
Q 1069 1734 1069 1313 
Q 1069 891 1326 650 
Q 1584 409 2034 409 
Q 2484 409 2743 651 
Q 3003 894 3003 1313 
Q 3003 1734 2745 1975 
Q 2488 2216 2034 2216 
z
M 1403 2484 
Q 997 2584 770 2862 
Q 544 3141 544 3541 
Q 544 4100 942 4425 
Q 1341 4750 2034 4750 
Q 2731 4750 3128 4425 
Q 3525 4100 3525 3541 
Q 3525 3141 3298 2862 
Q 3072 2584 2669 2484 
Q 3125 2378 3379 2068 
Q 3634 1759 3634 1313 
Q 3634 634 3220 271 
Q 2806 -91 2034 -91 
Q 1263 -91 848 271 
Q 434 634 434 1313 
Q 434 1759 690 2068 
Q 947 2378 1403 2484 
z
M 1172 3481 
Q 1172 3119 1398 2916 
Q 1625 2713 2034 2713 
Q 2441 2713 2670 2916 
Q 2900 3119 2900 3481 
Q 2900 3844 2670 4047 
Q 2441 4250 2034 4250 
Q 1625 4250 1398 4047 
Q 1172 3844 1172 3481 
z
" transform="scale(0.015625)"/>
       </defs>
       <use xlink:href="#DejaVuSans-38"/>
       <use xlink:href="#DejaVuSans-30" x="63.623047"/>
       <use xlink:href="#DejaVuSans-30" x="127.246094"/>
       <use xlink:href="#DejaVuSans-30" x="190.869141"/>
       <use xlink:href="#DejaVuSans-30" x="254.492188"/>
      </g>
     </g>
    </g>
    <g id="text_10">
     <!-- Time (s) -->
     <g transform="translate(500.556094 490.316563)scale(0.1 -0.1)">
      <defs>
       <path id="DejaVuSans-54" d="M -19 4666 
L 3928 4666 
L 3928 4134 
L 2272 4134 
L 2272 0 
L 1638 0 
L 1638 4134 
L -19 4134 
L -19 4666 
z
" transform="scale(0.015625)"/>
       <path id="DejaVuSans-69" d="M 603 3500 
L 1178 3500 
L 1178 0 
L 603 0 
L 603 3500 
z
M 603 4863 
L 1178 4863 
L 1178 4134 
L 603 4134 
L 603 4863 
z
" transform="scale(0.015625)"/>
       <path id="DejaVuSans-6d" d="M 3328 2828 
Q 3544 3216 3844 3400 
Q 4144 3584 4550 3584 
Q 5097 3584 5394 3201 
Q 5691 2819 5691 2113 
L 5691 0 
L 5113 0 
L 5113 2094 
Q 5113 2597 4934 2840 
Q 4756 3084 4391 3084 
Q 3944 3084 3684 2787 
Q 3425 2491 3425 1978 
L 3425 0 
L 2847 0 
L 2847 2094 
Q 2847 2600 2669 2842 
Q 2491 3084 2119 3084 
Q 1678 3084 1418 2786 
Q 1159 2488 1159 1978 
L 1159 0 
L 581 0 
L 581 3500 
L 1159 3500 
L 1159 2956 
Q 1356 3278 1631 3431 
Q 1906 3584 2284 3584 
Q 2666 3584 2933 3390 
Q 3200 3197 3328 2828 
z
" transform="scale(0.015625)"/>
       <path id="DejaVuSans-65" d="M 3597 1894 
L 3597 1613 
L 953 1613 
Q 991 1019 1311 708 
Q 1631 397 2203 397 
Q 2534 397 2845 478 
Q 3156 559 3463 722 
L 3463 178 
Q 3153 47 2828 -22 
Q 2503 -91 2169 -91 
Q 1331 -91 842 396 
Q 353 884 353 1716 
Q 353 2575 817 3079 
Q 1281 3584 2069 3584 
Q 2775 3584 3186 3129 
Q 3597 2675 3597 1894 
z
M 3022 2063 
Q 3016 2534 2758 2815 
Q 2500 3097 2075 3097 
Q 1594 3097 1305 2825 
Q 1016 2553 972 2059 
L 3022 2063 
z
" transform="scale(0.015625)"/>
       <path id="DejaVuSans-20" transform="scale(0.015625)"/>
       <path id="DejaVuSans-28" d="M 1984 4856 
Q 1566 4138 1362 3434 
Q 1159 2731 1159 2009 
Q 1159 1288 1364 580 
Q 1569 -128 1984 -844 
L 1484 -844 
Q 1016 -109 783 600 
Q 550 1309 550 2009 
Q 550 2706 781 3412 
Q 1013 4119 1484 4856 
L 1984 4856 
z
" transform="scale(0.015625)"/>
       <path id="DejaVuSans-73" d="M 2834 3397 
L 2834 2853 
Q 2591 2978 2328 3040 
Q 2066 3103 1784 3103 
Q 1356 3103 1142 2972 
Q 928 2841 928 2578 
Q 928 2378 1081 2264 
Q 1234 2150 1697 2047 
L 1894 2003 
Q 2506 1872 2764 1633 
Q 3022 1394 3022 966 
Q 3022 478 2636 193 
Q 2250 -91 1575 -91 
Q 1294 -91 989 -36 
Q 684 19 347 128 
L 347 722 
Q 666 556 975 473 
Q 1284 391 1588 391 
Q 1994 391 2212 530 
Q 2431 669 2431 922 
Q 2431 1156 2273 1281 
Q 2116 1406 1581 1522 
L 1381 1569 
Q 847 1681 609 1914 
Q 372 2147 372 2553 
Q 372 3047 722 3315 
Q 1072 3584 1716 3584 
Q 2034 3584 2315 3537 
Q 2597 3491 2834 3397 
z
" transform="scale(0.015625)"/>
       <path id="DejaVuSans-29" d="M 513 4856 
L 1013 4856 
Q 1481 4119 1714 3412 
Q 1947 2706 1947 2009 
Q 1947 1309 1714 600 
Q 1481 -109 1013 -844 
L 513 -844 
Q 928 -128 1133 580 
Q 1338 1288 1338 2009 
Q 1338 2731 1133 3434 
Q 928 4138 513 4856 
z
" transform="scale(0.015625)"/>
      </defs>
      <use xlink:href="#DejaVuSans-54"/>
      <use xlink:href="#DejaVuSans-69" x="57.958984"/>
      <use xlink:href="#DejaVuSans-6d" x="85.742188"/>
      <use xlink:href="#DejaVuSans-65" x="183.154297"/>
      <use xlink:href="#DejaVuSans-20" x="244.677734"/>
      <use xlink:href="#DejaVuSans-28" x="276.464844"/>
      <use xlink:href="#DejaVuSans-73" x="315.478516"/>
      <use xlink:href="#DejaVuSans-29" x="367.578125"/>
     </g>
    </g>
   </g>
   <g id="matplotlib.axis_2">
    <g id="ytick_1">
     <g id="line2d_10">
      <defs>
       <path id="mde85074727" d="M 0 0 
L -3.5 0 
" style="stroke: #000000; stroke-width: 0.8"/>
      </defs>
      <g>
       <use xlink:href="#mde85074727" x="44.57" y="442.26" style="stroke: #000000; stroke-width: 0.8"/>
      </g>
     </g>
     <g id="text_11">
      <!-- 0 -->
      <g transform="translate(31.2075 446.059219)scale(0.1 -0.1)">
       <use xlink:href="#DejaVuSans-30"/>
      </g>
     </g>
    </g>
    <g id="ytick_2">
     <g id="line2d_11">
      <g>
       <use xlink:href="#mde85074727" x="44.57" y="371.108921" style="stroke: #000000; stroke-width: 0.8"/>
      </g>
     </g>
     <g id="text_12">
      <!-- 5 -->
      <g transform="translate(31.2075 374.90814)scale(0.1 -0.1)">
       <use xlink:href="#DejaVuSans-35"/>
      </g>
     </g>
    </g>
    <g id="ytick_3">
     <g id="line2d_12">
      <g>
       <use xlink:href="#mde85074727" x="44.57" y="299.957842" style="stroke: #000000; stroke-width: 0.8"/>
      </g>
     </g>
     <g id="text_13">
      <!-- 10 -->
      <g transform="translate(24.845 303.75706)scale(0.1 -0.1)">
       <use xlink:href="#DejaVuSans-31"/>
       <use xlink:href="#DejaVuSans-30" x="63.623047"/>
      </g>
     </g>
    </g>
    <g id="ytick_4">
     <g id="line2d_13">
      <g>
       <use xlink:href="#mde85074727" x="44.57" y="228.806763" style="stroke: #000000; stroke-width: 0.8"/>
      </g>
     </g>
     <g id="text_14">
      <!-- 15 -->
      <g transform="translate(24.845 232.605981)scale(0.1 -0.1)">
       <use xlink:href="#DejaVuSans-31"/>
       <use xlink:href="#DejaVuSans-35" x="63.623047"/>
      </g>
     </g>
    </g>
    <g id="ytick_5">
     <g id="line2d_14">
      <g>
       <use xlink:href="#mde85074727" x="44.57" y="157.655683" style="stroke: #000000; stroke-width: 0.8"/>
      </g>
     </g>
     <g id="text_15">
      <!-- 20 -->
      <g transform="translate(24.845 161.454902)scale(0.1 -0.1)">
       <use xlink:href="#DejaVuSans-32"/>
       <use xlink:href="#DejaVuSans-30" x="63.623047"/>
      </g>
     </g>
    </g>
    <g id="ytick_6">
     <g id="line2d_15">
      <g>
       <use xlink:href="#mde85074727" x="44.57" y="86.504604" style="stroke: #000000; stroke-width: 0.8"/>
      </g>
     </g>
     <g id="text_16">
      <!-- 25 -->
      <g transform="translate(24.845 90.303823)scale(0.1 -0.1)">
       <use xlink:href="#DejaVuSans-32"/>
       <use xlink:href="#DejaVuSans-35" x="63.623047"/>
      </g>
     </g>
    </g>
    <g id="text_17">
     <!-- Gradient (K/min) -->
     <g transform="translate(18.765312 286.104531)rotate(-90)scale(0.1 -0.1)">
      <defs>
       <path id="DejaVuSans-47" d="M 3809 666 
L 3809 1919 
L 2778 1919 
L 2778 2438 
L 4434 2438 
L 4434 434 
Q 4069 175 3628 42 
Q 3188 -91 2688 -91 
Q 1594 -91 976 548 
Q 359 1188 359 2328 
Q 359 3472 976 4111 
Q 1594 4750 2688 4750 
Q 3144 4750 3555 4637 
Q 3966 4525 4313 4306 
L 4313 3634 
Q 3963 3931 3569 4081 
Q 3175 4231 2741 4231 
Q 1884 4231 1454 3753 
Q 1025 3275 1025 2328 
Q 1025 1384 1454 906 
Q 1884 428 2741 428 
Q 3075 428 3337 486 
Q 3600 544 3809 666 
z
" transform="scale(0.015625)"/>
       <path id="DejaVuSans-72" d="M 2631 2963 
Q 2534 3019 2420 3045 
Q 2306 3072 2169 3072 
Q 1681 3072 1420 2755 
Q 1159 2438 1159 1844 
L 1159 0 
L 581 0 
L 581 3500 
L 1159 3500 
L 1159 2956 
Q 1341 3275 1631 3429 
Q 1922 3584 2338 3584 
Q 2397 3584 2469 3576 
Q 2541 3569 2628 3553 
L 2631 2963 
z
" transform="scale(0.015625)"/>
       <path id="DejaVuSans-61" d="M 2194 1759 
Q 1497 1759 1228 1600 
Q 959 1441 959 1056 
Q 959 750 1161 570 
Q 1363 391 1709 391 
Q 2188 391 2477 730 
Q 2766 1069 2766 1631 
L 2766 1759 
L 2194 1759 
z
M 3341 1997 
L 3341 0 
L 2766 0 
L 2766 531 
Q 2569 213 2275 61 
Q 1981 -91 1556 -91 
Q 1019 -91 701 211 
Q 384 513 384 1019 
Q 384 1609 779 1909 
Q 1175 2209 1959 2209 
L 2766 2209 
L 2766 2266 
Q 2766 2663 2505 2880 
Q 2244 3097 1772 3097 
Q 1472 3097 1187 3025 
Q 903 2953 641 2809 
L 641 3341 
Q 956 3463 1253 3523 
Q 1550 3584 1831 3584 
Q 2591 3584 2966 3190 
Q 3341 2797 3341 1997 
z
" transform="scale(0.015625)"/>
       <path id="DejaVuSans-64" d="M 2906 2969 
L 2906 4863 
L 3481 4863 
L 3481 0 
L 2906 0 
L 2906 525 
Q 2725 213 2448 61 
Q 2172 -91 1784 -91 
Q 1150 -91 751 415 
Q 353 922 353 1747 
Q 353 2572 751 3078 
Q 1150 3584 1784 3584 
Q 2172 3584 2448 3432 
Q 2725 3281 2906 2969 
z
M 947 1747 
Q 947 1113 1208 752 
Q 1469 391 1925 391 
Q 2381 391 2643 752 
Q 2906 1113 2906 1747 
Q 2906 2381 2643 2742 
Q 2381 3103 1925 3103 
Q 1469 3103 1208 2742 
Q 947 2381 947 1747 
z
" transform="scale(0.015625)"/>
       <path id="DejaVuSans-6e" d="M 3513 2113 
L 3513 0 
L 2938 0 
L 2938 2094 
Q 2938 2591 2744 2837 
Q 2550 3084 2163 3084 
Q 1697 3084 1428 2787 
Q 1159 2491 1159 1978 
L 1159 0 
L 581 0 
L 581 3500 
L 1159 3500 
L 1159 2956 
Q 1366 3272 1645 3428 
Q 1925 3584 2291 3584 
Q 2894 3584 3203 3211 
Q 3513 2838 3513 2113 
z
" transform="scale(0.015625)"/>
       <path id="DejaVuSans-74" d="M 1172 4494 
L 1172 3500 
L 2356 3500 
L 2356 3053 
L 1172 3053 
L 1172 1153 
Q 1172 725 1289 603 
Q 1406 481 1766 481 
L 2356 481 
L 2356 0 
L 1766 0 
Q 1100 0 847 248 
Q 594 497 594 1153 
L 594 3053 
L 172 3053 
L 172 3500 
L 594 3500 
L 594 4494 
L 1172 4494 
z
" transform="scale(0.015625)"/>
       <path id="DejaVuSans-4b" d="M 628 4666 
L 1259 4666 
L 1259 2694 
L 3353 4666 
L 4166 4666 
L 1850 2491 
L 4331 0 
L 3500 0 
L 1259 2247 
L 1259 0 
L 628 0 
L 628 4666 
z
" transform="scale(0.015625)"/>
       <path id="DejaVuSans-2f" d="M 1625 4666 
L 2156 4666 
L 531 -594 
L 0 -594 
L 1625 4666 
z
" transform="scale(0.015625)"/>
      </defs>
      <use xlink:href="#DejaVuSans-47"/>
      <use xlink:href="#DejaVuSans-72" x="77.490234"/>
      <use xlink:href="#DejaVuSans-61" x="118.603516"/>
      <use xlink:href="#DejaVuSans-64" x="179.882812"/>
      <use xlink:href="#DejaVuSans-69" x="243.359375"/>
      <use xlink:href="#DejaVuSans-65" x="271.142578"/>
      <use xlink:href="#DejaVuSans-6e" x="332.666016"/>
      <use xlink:href="#DejaVuSans-74" x="396.044922"/>
      <use xlink:href="#DejaVuSans-20" x="435.253906"/>
      <use xlink:href="#DejaVuSans-28" x="467.041016"/>
      <use xlink:href="#DejaVuSans-4b" x="506.054688"/>
      <use xlink:href="#DejaVuSans-2f" x="571.630859"/>
      <use xlink:href="#DejaVuSans-6d" x="605.322266"/>
      <use xlink:href="#DejaVuSans-69" x="702.734375"/>
      <use xlink:href="#DejaVuSans-6e" x="730.517578"/>
      <use xlink:href="#DejaVuSans-29" x="793.896484"/>
     </g>
    </g>
   </g>
   <g id="line2d_16">
    <path d="M 87.871364 331.264317 
L 87.948331 322.726187 
L 88.223215 277.189496 
L 88.366155 281.458561 
L 88.465113 281.458561 
L 88.608053 285.727626 
L 88.630043 285.727626 
L 88.663029 284.304604 
L 88.729001 287.150647 
L 88.761988 287.150647 
L 88.772983 285.727626 
L 88.838955 288.573669 
L 88.860946 288.573669 
L 88.871941 288.573669 
L 88.882936 287.150647 
L 88.948909 289.996691 
L 88.981895 288.573669 
L 88.99289 288.573669 
L 89.014881 289.996691 
L 89.025876 287.150647 
L 89.102844 288.573669 
L 89.113839 288.573669 
L 89.124834 287.150647 
L 89.223792 288.573669 
L 89.344741 289.996691 
L 89.410714 289.996691 
L 89.531662 291.419712 
L 89.597635 289.996691 
L 89.641616 291.419712 
L 89.663607 291.419712 
L 89.784556 294.265755 
L 89.828537 294.265755 
L 89.883514 295.688777 
L 89.905505 292.842734 
L 89.927495 292.842734 
L 90.202379 292.842734 
L 90.301337 294.265755 
L 90.312333 292.842734 
L 90.323328 292.842734 
L 90.433282 294.265755 
L 90.543235 292.842734 
L 90.631198 297.111799 
L 90.664184 295.688777 
L 90.763142 297.111799 
L 90.774138 295.688777 
L 90.796128 295.688777 
L 90.851105 297.111799 
L 90.895087 294.265755 
L 91.00504 292.842734 
L 91.103998 294.265755 
L 91.114994 292.842734 
L 91.136985 292.842734 
L 91.235943 294.265755 
L 91.246938 292.842734 
L 91.532817 292.842734 
L 91.653766 295.688777 
L 91.774715 294.265755 
L 91.796706 295.688777 
L 91.807701 291.419712 
L 91.873673 292.842734 
L 91.884669 292.842734 
L 92.005618 291.419712 
L 92.104576 292.842734 
L 92.115571 291.419712 
L 92.23652 291.419712 
L 92.247516 292.842734 
L 92.346474 291.419712 
L 92.37946 291.419712 
L 92.434437 289.996691 
L 92.456427 294.265755 
L 92.478418 292.842734 
L 92.489413 292.842734 
L 92.599367 294.265755 
L 92.720316 292.842734 
L 92.841265 292.842734 
L 92.951218 291.419712 
L 92.984204 292.842734 
L 93.006195 289.996691 
L 93.039181 289.996691 
L 93.149135 288.573669 
L 93.270084 289.996691 
L 93.292074 289.996691 
L 93.413023 288.573669 
L 93.435014 288.573669 
L 93.500986 289.996691 
L 93.544968 288.573669 
L 93.599944 288.573669 
L 93.61094 287.150647 
L 93.676912 291.419712 
L 93.687907 291.419712 
L 93.698903 291.419712 
L 93.819852 289.996691 
L 93.907814 289.996691 
L 94.028763 288.573669 
L 94.039759 288.573669 
L 94.138717 289.996691 
L 94.149712 288.573669 
L 94.182698 288.573669 
L 94.193694 289.996691 
L 94.237675 285.727626 
L 94.270661 285.727626 
L 94.446587 285.727626 
L 94.545545 284.304604 
L 94.55654 285.727626 
L 94.578531 285.727626 
L 94.69948 284.304604 
L 94.776448 284.304604 
L 94.875406 282.881583 
L 94.886401 284.304604 
L 94.974364 287.150647 
L 94.996355 285.727626 
L 95.040336 285.727626 
L 95.161285 284.304604 
L 95.271239 285.727626 
L 95.414178 281.458561 
L 95.436169 281.458561 
L 95.557118 280.03554 
L 95.579109 280.03554 
L 95.612095 281.458561 
L 95.689062 280.03554 
L 95.711053 280.03554 
L 95.832002 278.612518 
L 95.853993 278.612518 
L 95.908969 280.03554 
L 95.963946 278.612518 
L 96.007928 278.612518 
L 96.029918 277.189496 
L 96.051909 281.458561 
L 96.09589 281.458561 
L 96.106886 281.458561 
L 96.23883 278.612518 
L 96.348784 278.612518 
L 96.370774 280.03554 
L 96.458737 278.612518 
L 96.491723 278.612518 
L 96.612672 274.343453 
L 96.678644 274.343453 
L 96.799593 272.920432 
L 96.99751 272.920432 
L 97.129454 270.074388 
L 97.140449 270.074388 
L 97.261398 272.920432 
L 97.382347 271.49741 
L 97.426329 271.49741 
L 97.558273 268.651367 
L 97.61325 268.651367 
L 97.701212 264.382302 
L 97.734199 265.805324 
L 97.866143 262.959281 
L 97.877138 262.959281 
L 97.998087 261.536259 
L 98.009082 261.536259 
L 98.141027 258.690216 
L 98.174013 258.690216 
L 98.261976 257.267194 
L 98.272971 260.113237 
L 98.327948 260.113237 
L 98.459892 257.267194 
L 98.503873 257.267194 
L 98.635818 254.421151 
L 98.646813 254.421151 
L 98.811743 247.306043 
L 98.855725 247.306043 
L 98.998665 243.036978 
L 99.00966 243.036978 
L 99.1526 238.767914 
L 99.17459 238.767914 
L 99.328525 233.075827 
L 99.361511 237.344892 
L 99.438479 233.075827 
L 99.46047 233.075827 
L 99.614404 225.960719 
L 99.6254 227.383741 
L 99.702367 223.114676 
L 99.889288 213.153525 
L 99.900284 213.153525 
L 100.032228 201.769353 
L 100.197158 187.539137 
L 100.208154 187.539137 
L 100.955838 76.543453 
L 101.16475 46.66 
L 101.175745 48.083022 
L 101.307689 77.966475 
L 101.736508 287.150647 
L 101.989402 379.64705 
L 102.000397 379.64705 
L 102.220304 408.107482 
L 102.385234 416.645612 
L 102.517179 413.799568 
L 102.56116 413.799568 
L 102.583151 412.376547 
L 102.649123 415.22259 
L 102.660118 415.22259 
L 102.715095 415.22259 
L 102.880025 422.337698 
L 102.891021 422.337698 
L 103.099933 435.144892 
L 103.187895 435.144892 
L 103.396807 422.337698 
L 103.62771 422.337698 
L 103.770649 426.606763 
L 103.79264 426.606763 
L 103.946575 432.298849 
L 104.10051 432.298849 
L 104.287431 422.337698 
L 104.540324 422.337698 
L 104.705255 429.452806 
L 104.936157 429.452806 
L 105.123078 419.491655 
L 105.342985 419.491655 
L 105.507916 426.606763 
L 105.716827 426.606763 
L 105.771804 428.029784 
L 105.793795 425.183741 
L 105.80479 425.183741 
L 105.969721 418.068633 
L 106.145646 418.068633 
L 106.299581 423.760719 
L 106.310577 423.760719 
L 106.431526 425.183741 
L 106.585461 425.183741 
L 106.651433 428.029784 
L 106.684419 425.183741 
L 106.849349 418.068633 
L 107.069256 418.068633 
L 107.223191 423.760719 
L 107.432103 423.760719 
L 107.553052 428.029784 
L 107.564047 426.606763 
L 107.739973 418.068633 
L 107.970876 418.068633 
L 108.113815 422.337698 
L 108.333722 422.337698 
L 108.421685 425.183741 
L 108.443676 422.337698 
L 108.597611 416.645612 
L 108.828513 416.645612 
L 108.982448 423.760719 
L 109.103397 422.337698 
L 109.246337 422.337698 
L 109.3343 426.606763 
L 109.35629 423.760719 
L 109.532216 415.22259 
L 109.708142 415.22259 
L 109.873072 422.337698 
L 109.884068 422.337698 
L 109.895063 423.760719 
L 109.961035 420.914676 
L 109.983026 420.914676 
L 110.147956 420.914676 
L 110.2799 425.183741 
L 110.477817 413.799568 
L 110.642747 413.799568 
L 110.807678 420.914676 
L 111.071566 420.914676 
L 111.159529 423.760719 
L 111.18152 420.914676 
L 111.335455 415.22259 
L 111.566357 415.22259 
L 111.709297 419.491655 
L 111.940199 419.491655 
L 111.995176 420.914676 
L 112.017167 418.068633 
L 112.028162 418.068633 
L 112.149111 416.645612 
L 112.369018 416.645612 
L 112.522953 422.337698 
L 112.841818 422.337698 
L 112.995753 416.645612 
L 113.237651 416.645612 
L 113.391586 422.337698 
L 113.64448 422.337698 
L 113.66647 423.760719 
L 113.721447 418.068633 
L 113.754433 418.068633 
L 113.875382 416.645612 
L 114.062303 416.645612 
L 114.227233 423.760719 
L 114.469131 423.760719 
L 114.568089 426.606763 
L 114.579085 425.183741 
L 114.73302 419.491655 
L 114.974918 419.491655 
L 115.095867 423.760719 
L 115.106862 422.337698 
L 115.392741 422.337698 
L 115.480704 425.183741 
L 115.502695 422.337698 
L 115.524686 422.337698 
L 115.645634 420.914676 
L 115.854546 420.914676 
L 115.98649 425.183741 
L 116.107439 423.760719 
L 116.338342 423.760719 
L 116.360333 425.183741 
L 116.393319 422.337698 
L 116.4373 422.337698 
L 116.767161 422.337698 
L 116.899105 425.183741 
L 117.19598 425.183741 
L 117.228966 426.606763 
L 117.261952 423.760719 
L 117.294938 423.760719 
L 117.657785 423.760719 
L 117.778734 425.183741 
L 118.108594 425.183741 
L 118.229543 423.760719 
L 118.482436 423.760719 
L 118.548409 426.606763 
L 118.603385 425.183741 
L 118.878269 425.183741 
L 118.911255 426.606763 
L 118.988223 425.183741 
L 119.318084 425.183741 
L 119.406046 428.029784 
L 119.439032 426.606763 
L 119.746902 426.606763 
L 119.768893 428.029784 
L 119.812875 425.183741 
L 119.845861 425.183741 
L 120.197712 425.183741 
L 120.29667 428.029784 
L 120.318661 426.606763 
L 120.626531 426.606763 
L 120.681508 428.029784 
L 120.725489 426.606763 
L 120.846438 425.183741 
L 121.066345 425.183741 
L 121.187294 426.606763 
L 121.473173 426.606763 
L 121.52815 428.029784 
L 121.583127 426.606763 
L 121.956969 426.606763 
L 121.989955 428.029784 
L 122.066923 426.606763 
L 122.319816 426.606763 
L 122.341807 428.029784 
L 122.429769 426.606763 
L 122.726644 426.606763 
L 122.847593 428.029784 
L 123.166458 428.029784 
L 123.188449 429.452806 
L 123.276412 428.029784 
L 123.617268 428.029784 
L 123.639259 429.452806 
L 123.727222 428.029784 
L 124.057082 428.029784 
L 124.178031 426.606763 
L 124.452915 426.606763 
L 124.46391 428.029784 
L 124.562869 426.606763 
L 124.793771 426.606763 
L 124.903725 428.029784 
L 125.024674 426.606763 
L 125.277567 426.606763 
L 125.321548 428.029784 
L 125.38752 426.606763 
L 125.640414 426.606763 
L 125.739372 429.452806 
L 125.761363 428.029784 
L 126.212172 428.029784 
L 126.333121 426.606763 
L 126.553028 426.606763 
L 126.629996 429.452806 
L 126.673977 428.029784 
L 126.794926 426.606763 
L 127.058815 426.606763 
L 127.080805 428.029784 
L 127.168768 426.606763 
L 127.410666 426.606763 
L 127.509624 429.452806 
L 127.531615 428.029784 
L 127.553606 428.029784 
L 127.674555 426.606763 
L 127.927448 426.606763 
L 127.99342 428.029784 
L 128.037401 426.606763 
L 128.312285 426.606763 
L 128.389253 429.452806 
L 128.433234 428.029784 
L 128.554183 426.606763 
L 128.807076 426.606763 
L 128.873048 428.029784 
L 128.91703 426.606763 
L 129.202909 426.606763 
L 129.301867 428.029784 
L 129.312863 426.606763 
L 129.686705 426.606763 
L 129.741682 428.029784 
L 129.796658 426.606763 
L 130.060547 426.606763 
L 130.14851 428.029784 
L 130.170501 426.606763 
L 130.533347 426.606763 
L 130.632305 428.029784 
L 130.643301 426.606763 
L 130.973162 426.606763 
L 131.028138 428.029784 
L 131.083115 426.606763 
L 131.423971 426.606763 
L 131.54492 428.029784 
L 131.830799 428.029784 
L 131.85279 429.452806 
L 131.907767 426.606763 
L 131.929758 426.606763 
L 132.292604 426.606763 
L 132.314595 428.029784 
L 132.402558 426.606763 
L 132.644456 426.606763 
L 132.721423 428.029784 
L 132.754409 426.606763 
L 133.106261 426.606763 
L 133.205219 428.029784 
L 133.216214 426.606763 
L 133.546075 426.606763 
L 133.55707 428.029784 
L 133.656029 426.606763 
L 133.930912 426.606763 
L 133.996885 428.029784 
L 134.040866 426.606763 
L 134.76656 426.606763 
L 134.78855 428.029784 
L 134.876513 426.606763 
L 135.151397 426.606763 
L 135.206374 429.452806 
L 135.272346 428.029784 
L 135.646188 428.029784 
L 135.767137 426.606763 
L 136.415863 426.606763 
L 136.481835 428.029784 
L 136.525817 426.606763 
L 137.262506 426.606763 
L 137.383454 428.029784 
L 137.504403 426.606763 
L 137.658338 426.606763 
L 137.724311 428.029784 
L 137.768292 426.606763 
L 138.043176 426.606763 
L 138.17512 429.452806 
L 138.186115 429.452806 
L 138.31806 426.606763 
L 138.570953 426.606763 
L 138.592944 428.029784 
L 138.64792 425.183741 
L 138.669911 425.183741 
L 138.95579 425.183741 
L 139.087735 428.029784 
L 139.208684 426.606763 
L 139.395605 426.606763 
L 139.417595 428.029784 
L 139.505558 426.606763 
L 139.791438 426.606763 
L 139.912386 428.029784 
L 140.682061 428.029784 
L 140.80301 426.606763 
L 141.022917 426.606763 
L 141.08889 429.452806 
L 141.143866 428.029784 
L 141.165857 428.029784 
L 141.286806 426.606763 
L 141.56169 426.606763 
L 141.682639 425.183741 
L 141.825579 425.183741 
L 141.946527 426.606763 
L 142.287384 426.606763 
L 142.364351 429.452806 
L 142.408332 428.029784 
L 142.430323 428.029784 
L 142.551272 426.606763 
L 142.727198 426.606763 
L 142.760184 428.029784 
L 142.826156 425.183741 
L 143.134026 425.183741 
L 143.254975 426.606763 
L 143.26597 426.606763 
L 143.386919 425.183741 
L 143.518863 425.183741 
L 143.606826 428.029784 
L 143.639812 426.606763 
L 143.683794 426.606763 
L 143.804743 425.183741 
L 143.969673 425.183741 
L 144.090622 426.606763 
L 144.123608 426.606763 
L 144.244557 425.183741 
L 144.398492 425.183741 
L 144.49745 428.029784 
L 144.519441 426.606763 
L 144.849302 426.606763 
L 144.970251 428.029784 
L 144.981246 428.029784 
L 145.102195 426.606763 
L 145.322102 426.606763 
L 145.333097 428.029784 
L 145.432055 426.606763 
L 145.706939 426.606763 
L 145.827888 428.029784 
L 146.135758 428.029784 
L 146.157749 429.452806 
L 146.20173 426.606763 
L 146.234717 426.606763 
L 146.597563 426.606763 
L 146.619554 428.029784 
L 146.707517 426.606763 
L 146.96041 426.606763 
L 147.026382 428.029784 
L 147.070364 426.606763 
L 147.43321 426.606763 
L 147.455201 428.029784 
L 147.543164 426.606763 
L 147.807053 426.606763 
L 147.851034 428.029784 
L 147.917006 426.606763 
L 148.224876 426.606763 
L 148.235871 428.029784 
L 148.33483 426.606763 
L 148.565732 426.606763 
L 148.631704 428.029784 
L 148.675686 426.606763 
L 149.390384 426.606763 
L 149.434365 428.029784 
L 149.500337 426.606763 
L 150.18205 426.606763 
L 150.226031 428.029784 
L 150.292003 426.606763 
L 150.698831 426.606763 
L 150.81978 425.183741 
L 150.973715 425.183741 
L 151.017697 426.606763 
L 151.083669 425.183741 
L 151.358553 425.183741 
L 151.479502 426.606763 
L 151.765381 426.606763 
L 151.798367 428.029784 
L 151.875334 426.606763 
L 152.535056 426.606763 
L 152.590033 428.029784 
L 152.645009 426.606763 
L 153.040842 426.606763 
L 153.161791 425.183741 
L 153.337717 425.183741 
L 153.414684 426.606763 
L 153.44767 425.183741 
L 153.73355 425.183741 
L 153.854499 426.606763 
L 154.140378 426.606763 
L 154.228341 428.029784 
L 154.250331 426.606763 
L 154.976025 426.606763 
L 155.063988 428.029784 
L 155.085979 426.606763 
L 155.811672 426.606763 
L 155.88864 428.029784 
L 155.921626 426.606763 
L 156.295468 426.606763 
L 156.328454 428.029784 
L 156.405421 426.606763 
L 156.66931 426.606763 
L 156.757273 428.029784 
L 156.779264 426.606763 
L 157.153106 426.606763 
L 157.175096 428.029784 
L 157.263059 426.606763 
L 157.515952 426.606763 
L 157.581925 428.029784 
L 157.625906 426.606763 
L 157.988753 426.606763 
L 158.032734 428.029784 
L 158.098706 426.606763 
L 158.362595 426.606763 
L 158.450558 428.029784 
L 158.472548 426.606763 
L 159.209237 426.606763 
L 159.275209 429.452806 
L 159.319191 426.606763 
L 159.704028 426.606763 
L 159.74801 428.029784 
L 159.813982 426.606763 
L 160.121852 426.606763 
L 160.198819 428.029784 
L 160.231805 426.606763 
L 160.957499 426.606763 
L 161.00148 428.029784 
L 161.067453 426.606763 
L 161.76016 426.606763 
L 161.826132 428.029784 
L 161.870114 426.606763 
L 162.243956 426.606763 
L 162.254951 428.029784 
L 162.309928 425.183741 
L 162.342914 425.183741 
L 162.606803 425.183741 
L 162.650784 426.606763 
L 162.716756 425.183741 
L 163.013631 425.183741 
L 163.090598 426.606763 
L 163.123584 425.183741 
L 163.398468 425.183741 
L 163.46444 426.606763 
L 163.508422 425.183741 
L 163.805296 425.183741 
L 163.882264 426.606763 
L 163.91525 425.183741 
L 164.179139 425.183741 
L 164.234115 426.606763 
L 164.289092 425.183741 
L 164.629948 425.183741 
L 164.750897 426.606763 
L 164.992795 426.606763 
L 165.058767 428.029784 
L 165.102748 426.606763 
L 165.465595 426.606763 
L 165.487586 428.029784 
L 165.564553 425.183741 
L 165.817447 425.183741 
L 165.9274 426.606763 
L 166.048349 425.183741 
L 166.180293 425.183741 
L 166.23527 423.760719 
L 166.290247 425.183741 
L 166.334228 425.183741 
L 166.455177 426.606763 
L 166.763047 426.606763 
L 166.883996 428.029784 
L 167.048927 428.029784 
L 167.169876 426.606763 
L 167.862583 426.606763 
L 167.895569 428.029784 
L 167.972537 426.606763 
L 173.195331 426.606763 
L 173.31628 425.183741 
L 173.613154 425.183741 
L 173.734103 426.606763 
L 174.745676 426.606763 
L 174.866625 428.029784 
L 175.625305 428.029784 
L 175.746254 426.606763 
L 180.41928 426.606763 
L 180.540229 428.029784 
L 181.287913 428.029784 
L 181.408862 426.606763 
L 183.772864 426.606763 
L 183.893813 428.029784 
L 184.25666 428.029784 
L 184.377609 426.606763 
L 184.971358 426.606763 
L 185.092307 428.029784 
L 185.400177 428.029784 
L 185.521126 426.606763 
L 186.114875 426.606763 
L 186.235824 428.029784 
L 190.535008 428.029784 
L 190.655957 426.606763 
L 192.833038 426.606763 
L 192.953987 428.029784 
L 197.220185 428.029784 
L 197.341134 426.606763 
L 200.716709 426.606763 
L 200.837657 428.029784 
L 201.728281 428.029784 
L 201.84923 426.606763 
L 202.344021 426.606763 
L 202.46497 428.029784 
L 202.860803 428.029784 
L 202.981752 426.606763 
L 204.719018 426.606763 
L 204.839967 428.029784 
L 207.368899 428.029784 
L 207.489848 426.606763 
L 209.227115 426.606763 
L 209.348063 428.029784 
L 215.131621 428.029784 
L 215.25257 426.606763 
L 224.279758 426.606763 
L 224.400707 428.029784 
L 226.577787 428.029784 
L 226.698736 426.606763 
L 227.237509 426.606763 
L 227.358458 428.029784 
L 227.556374 428.029784 
L 227.677323 426.606763 
L 228.414012 426.606763 
L 228.534961 428.029784 
L 228.974775 428.029784 
L 229.095724 426.606763 
L 230.470144 426.606763 
L 230.580097 428.029784 
L 231.976507 428.029784 
L 232.097456 426.606763 
L 235.879859 426.606763 
L 236.000808 428.029784 
L 236.396641 428.029784 
L 236.51759 426.606763 
L 237.254279 426.606763 
L 237.375227 428.029784 
L 237.584139 428.029784 
L 237.705088 426.606763 
L 239.090503 426.606763 
L 239.211452 428.029784 
L 239.409368 428.029784 
L 239.530317 426.606763 
L 253.736318 426.606763 
L 253.857267 428.029784 
L 256.177287 428.029784 
L 256.298236 426.606763 
L 256.891985 426.606763 
L 257.012934 428.029784 
L 261.004249 428.029784 
L 261.125198 426.606763 
L 272.43942 426.606763 
L 272.560369 425.183741 
L 272.945206 425.183741 
L 273.07715 428.029784 
L 273.472983 428.029784 
L 273.593932 426.606763 
L 274.880389 426.606763 
L 275.001338 428.029784 
L 280.180151 428.029784 
L 280.3011 426.606763 
L 281.884431 426.606763 
L 282.00538 428.029784 
L 282.126329 426.606763 
L 283.643688 426.606763 
L 283.764637 428.029784 
L 284.050516 428.029784 
L 284.171465 426.606763 
L 284.77621 426.606763 
L 284.897159 428.029784 
L 285.578871 428.029784 
L 285.69982 426.606763 
L 286.073662 426.606763 
L 286.194611 425.183741 
L 286.238592 425.183741 
L 286.359541 426.606763 
L 286.920304 426.606763 
L 287.041253 428.029784 
L 288.822501 428.029784 
L 288.94345 426.606763 
L 290.273888 426.606763 
L 290.394837 428.029784 
L 291.010577 428.029784 
L 291.131526 426.606763 
L 292.319024 426.606763 
L 292.439973 428.029784 
L 299.729895 428.029784 
L 299.850844 426.606763 
L 317.080568 426.606763 
L 317.201516 428.029784 
L 317.45441 428.029784 
L 317.575359 426.606763 
L 323.666786 426.606763 
L 323.787735 425.183741 
L 323.908684 426.606763 
L 324.238545 426.606763 
L 324.359494 428.029784 
L 324.810303 428.029784 
L 324.931252 426.606763 
L 325.821876 426.606763 
L 325.942825 428.029784 
L 327.63611 428.029784 
L 327.757059 426.606763 
L 331.748373 426.606763 
L 331.869322 425.183741 
L 332.056243 425.183741 
L 332.177192 426.606763 
L 333.111797 426.606763 
L 333.232746 428.029784 
L 333.892468 428.029784 
L 334.013417 426.606763 
L 339.269197 426.606763 
L 339.390146 428.029784 
L 339.840956 428.029784 
L 339.961905 426.606763 
L 341.754148 426.606763 
L 341.875097 425.183741 
L 342.116995 425.183741 
L 342.237943 426.606763 
L 343.260512 426.606763 
L 343.381461 428.029784 
L 346.834003 428.029784 
L 346.954951 426.606763 
L 353.101356 426.606763 
L 353.222305 425.183741 
L 353.464203 425.183741 
L 353.585151 426.606763 
L 354.860613 426.606763 
L 354.981562 428.029784 
L 356.355981 428.029784 
L 356.47693 426.606763 
L 363.294051 426.606763 
L 363.415 425.183741 
L 363.480972 425.183741 
L 363.612917 418.068633 
L 363.623912 418.068633 
L 363.799838 406.68446 
L 363.810833 408.107482 
L 363.821828 408.107482 
L 364.03074 395.300288 
L 364.041736 395.300288 
L 364.17368 388.18518 
L 364.184675 388.18518 
L 364.294629 385.339137 
L 364.382592 383.916115 
L 364.415578 388.18518 
L 364.426573 388.18518 
L 364.437568 386.762158 
L 364.448564 389.608201 
L 364.492545 388.18518 
L 364.613494 393.877266 
L 364.62449 393.877266 
L 364.635485 392.454245 
L 364.64648 398.146331 
L 364.690462 398.146331 
L 364.811411 402.415396 
L 364.833401 402.415396 
L 364.910369 410.953525 
L 364.95435 409.530504 
L 364.965346 409.530504 
L 364.987336 408.107482 
L 365.108285 416.645612 
L 365.229234 416.645612 
L 365.317197 420.914676 
L 365.350183 419.491655 
L 365.372174 419.491655 
L 365.427151 418.068633 
L 365.438146 420.914676 
L 365.471132 420.914676 
L 365.482127 420.914676 
L 365.57009 422.337698 
L 365.592081 420.914676 
L 365.625067 420.914676 
L 365.71303 423.760719 
L 365.735021 422.337698 
L 365.822983 422.337698 
L 365.943932 423.760719 
L 365.954928 423.760719 
L 366.0209 422.337698 
L 366.064881 423.760719 
L 366.075877 423.760719 
L 366.196826 425.183741 
L 366.207821 425.183741 
L 366.218816 423.760719 
L 366.317774 425.183741 
L 366.405737 425.183741 
L 366.416733 423.760719 
L 366.482705 426.606763 
L 366.504696 426.606763 
L 366.603654 426.606763 
L 366.658631 425.183741 
L 366.713607 426.606763 
L 366.856547 426.606763 
L 366.977496 428.029784 
L 366.999487 428.029784 
L 367.054463 426.606763 
L 367.10944 428.029784 
L 367.25238 428.029784 
L 367.329347 429.452806 
L 367.362333 428.029784 
L 367.450296 428.029784 
L 367.571245 429.452806 
L 367.72518 429.452806 
L 367.846129 428.029784 
L 367.967078 429.452806 
L 368.17599 429.452806 
L 368.230966 428.029784 
L 368.285943 429.452806 
L 368.626799 429.452806 
L 368.747748 430.875827 
L 369.011637 430.875827 
L 369.132586 429.452806 
L 369.462446 429.452806 
L 369.583395 430.875827 
L 370.0452 430.875827 
L 370.166149 429.452806 
L 370.320084 429.452806 
L 370.441033 430.875827 
L 371.298671 430.875827 
L 371.353648 429.452806 
L 371.408625 430.875827 
L 374.102487 430.875827 
L 374.223436 429.452806 
L 374.80619 429.452806 
L 374.927139 430.875827 
L 375.575865 430.875827 
L 375.58686 429.452806 
L 375.685818 430.875827 
L 378.203755 430.875827 
L 378.324704 429.452806 
L 378.456648 429.452806 
L 378.577597 430.875827 
L 379.545188 430.875827 
L 379.666137 432.298849 
L 379.677133 432.298849 
L 379.798082 430.875827 
L 383.61347 430.875827 
L 383.734419 432.298849 
L 383.800391 432.298849 
L 383.92134 430.875827 
L 385.15282 430.875827 
L 385.273769 432.298849 
L 385.845528 432.298849 
L 385.966477 430.875827 
L 388.132562 430.875827 
L 388.187539 429.452806 
L 388.242516 430.875827 
L 389.023186 430.875827 
L 389.144135 432.298849 
L 390.342629 432.298849 
L 390.463578 430.875827 
L 392.387765 430.875827 
L 392.508714 432.298849 
L 393.806166 432.298849 
L 393.927115 430.875827 
L 394.476883 430.875827 
L 394.597832 432.298849 
L 395.356511 432.298849 
L 395.47746 430.875827 
L 395.6204 430.875827 
L 395.741349 432.298849 
L 397.434634 432.298849 
L 397.555583 430.875827 
L 398.237295 430.875827 
L 398.358244 432.298849 
L 398.86403 432.298849 
L 398.984979 430.875827 
L 399.380812 430.875827 
L 399.501761 432.298849 
L 402.096665 432.298849 
L 402.217614 433.721871 
L 402.679419 433.721871 
L 402.800368 432.298849 
L 404.614602 432.298849 
L 404.669578 430.875827 
L 404.724555 432.298849 
L 408.210083 432.298849 
L 408.331032 433.721871 
L 411.530681 433.721871 
L 411.65163 432.298849 
L 412.828133 432.298849 
L 412.949082 433.721871 
L 413.267947 433.721871 
L 413.388896 432.298849 
L 413.927669 432.298849 
L 414.048617 433.721871 
L 414.257529 433.721871 
L 414.378478 432.298849 
L 418.941551 432.298849 
L 419.0625 433.721871 
L 419.249421 433.721871 
L 419.37037 432.298849 
L 420.45891 432.298849 
L 420.557869 433.721871 
L 420.568864 432.298849 
L 421.855321 432.298849 
L 421.97627 430.875827 
L 422.30613 430.875827 
L 422.427079 432.298849 
L 423.724531 432.298849 
L 423.84548 430.875827 
L 423.922448 430.875827 
L 424.043397 432.298849 
L 424.879044 432.298849 
L 424.999993 433.721871 
L 425.362839 433.721871 
L 425.483788 432.298849 
L 425.758672 432.298849 
L 425.879621 430.875827 
L 426.022561 430.875827 
L 426.14351 432.298849 
L 430.684592 432.298849 
L 430.805541 430.875827 
L 431.344313 430.875827 
L 431.465262 432.298849 
L 431.652183 432.298849 
L 431.773132 433.721871 
L 431.894081 433.721871 
L 432.01503 432.298849 
L 432.597784 432.298849 
L 432.718733 433.721871 
L 432.839682 433.721871 
L 432.960631 432.298849 
L 434.851832 432.298849 
L 434.972781 433.721871 
L 435.192688 433.721871 
L 435.313637 432.298849 
L 437.182848 432.298849 
L 437.237825 430.875827 
L 437.292801 432.298849 
L 439.107035 432.298849 
L 439.227984 433.721871 
L 439.634812 433.721871 
L 439.755761 432.298849 
L 440.294534 432.298849 
L 440.415483 433.721871 
L 440.602404 433.721871 
L 440.723353 432.298849 
L 441.855874 432.298849 
L 441.976823 433.721871 
L 442.548582 433.721871 
L 442.669531 432.298849 
L 443.505178 432.298849 
L 443.626127 433.721871 
L 443.890015 433.721871 
L 444.010964 432.298849 
L 444.131913 432.298849 
L 444.252862 430.875827 
L 444.362816 430.875827 
L 444.483765 432.298849 
L 444.516751 432.298849 
L 444.6377 433.721871 
L 445.055523 433.721871 
L 445.176472 432.298849 
L 445.759226 432.298849 
L 445.880175 433.721871 
L 447.023692 433.721871 
L 447.144641 432.298849 
L 448.914893 432.298849 
L 449.035842 433.721871 
L 450.157369 433.721871 
L 450.278318 432.298849 
L 450.81709 432.298849 
L 450.938039 433.721871 
L 451.245909 433.721871 
L 451.366858 432.298849 
L 451.90563 432.298849 
L 452.026579 433.721871 
L 452.147528 433.721871 
L 452.268477 432.298849 
L 453.346022 432.298849 
L 453.466971 433.721871 
L 455.028312 433.721871 
L 455.149261 432.298849 
L 455.523103 432.298849 
L 455.644052 430.875827 
L 455.940926 430.875827 
L 456.061875 432.298849 
L 456.083866 432.298849 
L 456.204815 433.721871 
L 456.35875 433.721871 
L 456.479699 432.298849 
L 456.97449 432.298849 
L 457.095439 433.721871 
L 457.216388 433.721871 
L 457.337336 432.298849 
L 458.359905 432.298849 
L 458.480854 433.721871 
L 458.755737 433.721871 
L 458.876686 432.298849 
L 459.371477 432.298849 
L 459.393468 433.721871 
L 459.481431 432.298849 
L 460.251106 432.298849 
L 460.306083 430.875827 
L 460.36106 432.298849 
L 460.899832 432.298849 
L 461.020781 433.721871 
L 461.086753 433.721871 
L 461.207702 432.298849 
L 461.801451 432.298849 
L 461.9224 433.721871 
L 463.329806 433.721871 
L 463.450755 432.298849 
L 463.835592 432.298849 
L 463.868578 433.721871 
L 463.945546 432.298849 
L 465.034086 432.298849 
L 465.155035 433.721871 
L 465.814756 433.721871 
L 465.935705 432.298849 
L 467.167185 432.298849 
L 467.288134 433.721871 
L 469.432229 433.721871 
L 469.553178 432.298849 
L 469.949011 432.298849 
L 470.069959 433.721871 
L 474.039283 433.721871 
L 474.160232 432.298849 
L 474.347153 432.298849 
L 474.468102 433.721871 
L 475.908494 433.721871 
L 476.029443 432.298849 
L 476.568215 432.298849 
L 476.601201 433.721871 
L 476.678169 432.298849 
L 477.260923 432.298849 
L 477.381872 433.721871 
L 477.656755 433.721871 
L 477.711732 432.298849 
L 477.766709 433.721871 
L 485.331514 433.721871 
L 485.452463 432.298849 
L 485.584408 432.298849 
L 485.705357 433.721871 
L 488.355237 433.721871 
L 488.476186 435.144892 
L 489.993546 435.144892 
L 490.114495 433.721871 
L 493.028264 433.721871 
L 493.138218 432.298849 
L 493.259167 433.721871 
L 493.98486 433.721871 
L 494.105809 435.144892 
L 495.007428 435.144892 
L 495.128377 433.721871 
L 496.106964 433.721871 
L 496.227913 435.144892 
L 498.240063 435.144892 
L 498.361012 433.721871 
L 499.680455 433.721871 
L 499.790408 435.144892 
L 500.318185 435.144892 
L 500.439134 433.721871 
L 503.803714 433.721871 
L 503.924662 435.144892 
L 504.177556 435.144892 
L 504.298505 433.721871 
L 504.430449 433.721871 
L 504.551398 432.298849 
L 504.991212 432.298849 
L 505.112161 433.721871 
L 505.211119 433.721871 
L 505.343063 430.875827 
L 505.464012 430.875827 
L 505.496998 429.452806 
L 505.573966 430.875827 
L 505.738896 430.875827 
L 505.859845 432.298849 
L 505.881836 432.298849 
L 506.002785 433.721871 
L 506.134729 433.721871 
L 506.255678 435.144892 
L 507.124311 435.144892 
L 507.24526 433.721871 
L 507.970954 433.721871 
L 508.02593 432.298849 
L 508.080907 433.721871 
L 508.674656 433.721871 
L 508.795605 435.144892 
L 508.806601 435.144892 
L 508.92755 433.721871 
L 510.9397 433.721871 
L 511.060649 435.144892 
L 516.107518 435.144892 
L 516.228466 433.721871 
L 519.834943 433.721871 
L 519.955892 435.144892 
L 521.352303 435.144892 
L 521.473252 433.721871 
L 522.913643 433.721871 
L 523.034592 435.144892 
L 530.412477 435.144892 
L 530.544421 432.298849 
L 530.555416 432.298849 
L 530.676365 430.875827 
L 530.786319 430.875827 
L 530.907268 429.452806 
L 530.984235 429.452806 
L 531.028216 428.029784 
L 531.083193 429.452806 
L 531.215138 432.298849 
L 531.424049 432.298849 
L 531.544998 433.721871 
L 531.58898 433.721871 
L 531.709929 432.298849 
L 531.808887 432.298849 
L 531.929836 433.721871 
L 533.930991 433.721871 
L 534.05194 435.144892 
L 534.128907 435.144892 
L 534.249856 433.721871 
L 534.557726 433.721871 
L 534.678675 432.298849 
L 534.810619 432.298849 
L 534.931568 430.875827 
L 535.085503 430.875827 
L 535.217447 433.721871 
L 535.855178 433.721871 
L 535.976127 432.298849 
L 536.218025 432.298849 
L 536.240016 433.721871 
L 536.327978 432.298849 
L 536.800779 432.298849 
L 536.921728 433.721871 
L 537.031681 433.721871 
L 537.15263 432.298849 
L 537.845338 432.298849 
L 537.966286 433.721871 
L 540.352279 433.721871 
L 540.473228 432.298849 
L 540.913042 432.298849 
L 541.033991 433.721871 
L 541.066977 433.721871 
L 541.187926 432.298849 
L 541.836652 432.298849 
L 541.957601 433.721871 
L 543.507946 433.721871 
L 543.628895 432.298849 
L 545.652041 432.298849 
L 545.77299 433.721871 
L 546.124841 433.721871 
L 546.24579 432.298849 
L 547.33433 432.298849 
L 547.455279 433.721871 
L 548.25794 433.721871 
L 548.378889 432.298849 
L 548.917662 432.298849 
L 549.038611 433.721871 
L 549.885253 433.721871 
L 550.006202 432.298849 
L 551.721478 432.298849 
L 551.842427 433.721871 
L 552.062334 433.721871 
L 552.183283 432.298849 
L 553.458744 432.298849 
L 553.579693 433.721871 
L 562.013131 433.721871 
L 562.13408 432.298849 
L 563.805375 432.298849 
L 563.926323 433.721871 
L 564.630026 433.721871 
L 564.750975 432.298849 
L 566.191367 432.298849 
L 566.312316 433.721871 
L 567.213935 433.721871 
L 567.334884 432.298849 
L 567.873656 432.298849 
L 567.994605 433.721871 
L 568.247499 433.721871 
L 568.368448 432.298849 
L 569.500969 432.298849 
L 569.621918 433.721871 
L 569.885807 433.721871 
L 570.006756 432.298849 
L 571.139277 432.298849 
L 571.260226 433.721871 
L 572.249808 433.721871 
L 572.370757 432.298849 
L 572.700618 432.298849 
L 572.821567 430.875827 
L 572.865548 430.875827 
L 572.986497 432.298849 
L 578.099338 432.298849 
L 578.209292 430.875827 
L 578.330241 432.298849 
L 579.385795 432.298849 
L 579.506744 433.721871 
L 581.342968 433.721871 
L 581.463917 432.298849 
L 582.00269 432.298849 
L 582.123639 433.721871 
L 582.244588 432.298849 
L 586.290879 432.298849 
L 586.411828 433.721871 
L 586.829651 433.721871 
L 586.9506 432.298849 
L 587.786247 432.298849 
L 587.907196 433.721871 
L 588.314024 433.721871 
L 588.434973 432.298849 
L 590.304184 432.298849 
L 590.425133 433.721871 
L 590.941915 433.721871 
L 591.062864 432.298849 
L 591.645617 432.298849 
L 591.766566 433.721871 
L 592.404297 433.721871 
L 592.525246 432.298849 
L 593.151981 432.298849 
L 593.27293 433.721871 
L 594.130568 433.721871 
L 594.251517 432.298849 
L 594.999201 432.298849 
L 595.12015 433.721871 
L 597.396189 433.721871 
L 597.517138 432.298849 
L 598.946534 432.298849 
L 599.067483 433.721871 
L 599.529288 433.721871 
L 599.650237 432.298849 
L 600.650815 432.298849 
L 600.771763 433.721871 
L 601.123615 433.721871 
L 601.244564 432.298849 
L 601.783336 432.298849 
L 601.904285 433.721871 
L 602.157178 433.721871 
L 602.278127 432.298849 
L 602.860881 432.298849 
L 602.98183 433.721871 
L 607.74282 433.721871 
L 607.863768 432.298849 
L 608.457518 432.298849 
L 608.578467 433.721871 
L 610.040849 433.721871 
L 610.161798 432.298849 
L 611.140385 432.298849 
L 611.261334 433.721871 
L 613.680312 433.721871 
L 613.801261 432.298849 
L 614.340034 432.298849 
L 614.460982 433.721871 
L 614.669894 433.721871 
L 614.790843 432.298849 
L 615.307625 432.298849 
L 615.329616 430.875827 
L 615.417578 432.298849 
L 615.967346 432.298849 
L 616.088295 433.721871 
L 616.429151 433.721871 
L 616.5501 432.298849 
L 616.901952 432.298849 
L 617.022901 433.721871 
L 619.298939 433.721871 
L 619.419888 432.298849 
L 620.211554 432.298849 
L 620.332503 433.721871 
L 620.398475 433.721871 
L 620.519424 432.298849 
L 621.300094 432.298849 
L 621.421043 433.721871 
L 621.959816 433.721871 
L 622.080765 432.298849 
L 622.531574 432.298849 
L 622.652523 433.721871 
L 624.026943 433.721871 
L 624.147892 432.298849 
L 625.280413 432.298849 
L 625.401362 433.721871 
L 626.072079 433.721871 
L 626.193028 432.298849 
L 626.522889 432.298849 
L 626.643838 433.721871 
L 626.940712 433.721871 
L 627.061661 432.298849 
L 627.369531 432.298849 
L 627.49048 433.721871 
L 628.315132 433.721871 
L 628.436081 432.298849 
L 628.458071 432.298849 
L 628.57902 433.721871 
L 628.633997 433.721871 
L 628.754946 432.298849 
L 629.744528 432.298849 
L 629.865477 433.721871 
L 632.394409 433.721871 
L 632.515358 432.298849 
L 633.05413 432.298849 
L 633.175079 433.721871 
L 635.297183 433.721871 
L 635.418132 432.298849 
L 636.011881 432.298849 
L 636.13283 433.721871 
L 642.279235 433.721871 
L 642.400184 432.298849 
L 642.642081 432.298849 
L 642.76303 433.721871 
L 643.279812 433.721871 
L 643.400761 432.298849 
L 643.939534 432.298849 
L 644.060482 433.721871 
L 644.907125 433.721871 
L 645.028074 432.298849 
L 645.072055 432.298849 
L 645.193004 433.721871 
L 645.643814 433.721871 
L 645.764763 432.298849 
L 646.259554 432.298849 
L 646.380503 433.721871 
L 646.952261 433.721871 
L 647.07321 432.298849 
L 647.205154 432.298849 
L 647.326103 433.721871 
L 649.217305 433.721871 
L 649.338254 432.298849 
L 649.53617 432.298849 
L 649.657119 433.721871 
L 650.041956 433.721871 
L 650.162905 432.298849 
L 650.470775 432.298849 
L 650.591724 433.721871 
L 651.130497 433.721871 
L 651.251446 432.298849 
L 651.361399 432.298849 
L 651.372395 433.721871 
L 651.471353 432.298849 
L 652.054107 432.298849 
L 652.087093 433.721871 
L 652.16406 432.298849 
L 652.603875 432.298849 
L 652.724823 433.721871 
L 658.387432 433.721871 
L 658.48639 432.298849 
L 658.497386 433.721871 
L 658.981181 433.721871 
L 659.10213 432.298849 
L 659.124121 432.298849 
L 659.234075 433.721871 
L 659.300047 433.721871 
L 659.420996 432.298849 
L 659.783842 432.298849 
L 659.904791 433.721871 
L 659.915787 433.721871 
L 660.036736 432.298849 
L 660.223657 432.298849 
L 660.344606 433.721871 
L 661.158262 433.721871 
L 661.191248 435.144892 
L 661.268216 433.721871 
L 663.588236 433.721871 
L 663.709185 432.298849 
L 664.094022 432.298849 
L 664.214971 433.721871 
L 664.940665 433.721871 
L 665.061614 432.298849 
L 666.282098 432.298849 
L 666.403047 433.721871 
L 670.746213 433.721871 
L 670.867162 432.298849 
L 671.10906 432.298849 
L 671.230009 433.721871 
L 672.637414 433.721871 
L 672.758363 432.298849 
L 673.561024 432.298849 
L 673.637992 433.721871 
L 673.670978 432.298849 
L 673.934866 432.298849 
L 674.055815 433.721871 
L 674.759518 433.721871 
L 674.880467 432.298849 
L 675.13336 432.298849 
L 675.254309 433.721871 
L 676.19991 433.721871 
L 676.320859 432.298849 
L 677.024562 432.298849 
L 677.14551 433.721871 
L 677.299445 433.721871 
L 677.420394 432.298849 
L 677.541343 432.298849 
L 677.673288 433.721871 
L 678.387986 433.721871 
L 678.497939 432.298849 
L 678.596898 433.721871 
L 678.607893 432.298849 
L 679.124675 432.298849 
L 679.245624 433.721871 
L 679.311596 433.721871 
L 679.432545 432.298849 
L 679.58648 432.298849 
L 679.707429 433.721871 
L 679.806387 433.721871 
L 679.927336 432.298849 
L 680.191224 432.298849 
L 680.312173 433.721871 
L 680.784974 433.721871 
L 680.905922 432.298849 
L 681.169811 432.298849 
L 681.29076 433.721871 
L 683.687748 433.721871 
L 683.764715 435.144892 
L 683.797701 433.721871 
L 684.578372 433.721871 
L 684.69932 432.298849 
L 684.930223 432.298849 
L 685.051172 433.721871 
L 685.458 433.721871 
L 685.578949 432.298849 
L 685.76587 432.298849 
L 685.886819 433.721871 
L 686.150708 433.721871 
L 686.271656 432.298849 
L 686.623508 432.298849 
L 686.744457 433.721871 
L 690.724776 433.721871 
L 690.845725 435.144892 
L 691.087623 435.144892 
L 691.208572 433.721871 
L 691.450469 433.721871 
L 691.582414 432.298849 
L 691.978247 432.298849 
L 692.099195 433.721871 
L 692.297112 433.721871 
L 692.418061 435.144892 
L 692.84688 435.144892 
L 692.967829 433.721871 
L 697.970716 433.721871 
L 698.10266 432.298849 
L 698.597451 432.298849 
L 698.619442 433.721871 
L 698.707405 432.298849 
L 698.839349 432.298849 
L 698.960298 433.721871 
L 699.971871 433.721871 
L 700.09282 432.298849 
L 700.686569 432.298849 
L 700.818513 433.721871 
L 701.533211 433.721871 
L 701.643165 435.144892 
L 702.214924 435.144892 
L 702.335872 433.721871 
L 703.061566 433.721871 
L 703.182515 432.298849 
L 703.33645 432.298849 
L 703.468394 433.721871 
L 704.348023 433.721871 
L 704.468972 435.144892 
L 704.721865 435.144892 
L 704.842814 433.721871 
L 706.569085 433.721871 
L 706.690034 435.144892 
L 706.74501 435.144892 
L 706.865959 433.721871 
L 707.50369 433.721871 
L 707.624639 432.298849 
L 707.9545 432.298849 
L 708.064453 433.721871 
L 708.691189 433.721871 
L 708.812138 432.298849 
L 709.383896 432.298849 
L 709.504845 433.721871 
L 709.614799 433.721871 
L 709.724752 435.144892 
L 710.263525 435.144892 
L 710.384474 433.721871 
L 710.505422 433.721871 
L 710.615376 432.298849 
L 711.176139 432.298849 
L 711.297088 433.721871 
L 714.078913 433.721871 
L 714.199862 432.298849 
L 714.364793 432.298849 
L 714.474746 433.721871 
L 714.969537 433.721871 
L 715.101481 432.298849 
L 715.189444 432.298849 
L 715.310393 433.721871 
L 715.596273 433.721871 
L 715.717221 432.298849 
L 716.420924 432.298849 
L 716.541873 433.721871 
L 716.618841 433.721871 
L 716.750785 432.298849 
L 717.553446 432.298849 
L 717.674395 433.721871 
L 718.169186 433.721871 
L 718.27914 432.298849 
L 719.125782 432.298849 
L 719.246731 433.721871 
L 719.279717 433.721871 
L 719.400666 432.298849 
L 720.357262 432.298849 
L 720.478211 433.721871 
L 720.643141 433.721871 
L 720.76409 432.298849 
L 722.248463 432.298849 
L 722.369412 433.721871 
L 723.809804 433.721871 
L 723.930753 432.298849 
L 723.98573 432.298849 
L 724.106679 433.721871 
L 724.887349 433.721871 
L 725.008298 432.298849 
L 725.151237 432.298849 
L 725.272186 433.721871 
L 728.3179 433.721871 
L 728.438849 432.298849 
L 729.186533 432.298849 
L 729.307482 433.721871 
L 729.802273 433.721871 
L 729.923222 432.298849 
L 730.33005 432.298849 
L 730.450999 433.721871 
L 730.63792 433.721871 
L 730.769865 432.298849 
L 730.824841 432.298849 
L 730.94579 433.721871 
L 733.71662 433.721871 
L 733.848565 435.144892 
L 733.980509 433.721871 
L 734.200416 433.721871 
L 734.321365 432.298849 
L 735.102035 432.298849 
L 735.222984 433.721871 
L 737.026223 433.721871 
L 737.147171 432.298849 
L 737.433051 432.298849 
L 737.564995 433.721871 
L 737.762911 433.721871 
L 737.88386 435.144892 
L 738.004809 433.721871 
L 739.236289 433.721871 
L 739.346243 432.298849 
L 739.632122 432.298849 
L 739.764066 433.721871 
L 740.093927 433.721871 
L 740.214876 432.298849 
L 740.610709 432.298849 
L 740.731658 433.721871 
L 746.372276 433.721871 
L 746.493225 435.144892 
L 746.50422 435.144892 
L 746.625169 433.721871 
L 752.166829 433.721871 
L 752.276782 432.298849 
L 752.298773 432.298849 
L 752.419722 433.721871 
L 754.607798 433.721871 
L 754.618793 432.298849 
L 754.717751 433.721871 
L 755.421454 433.721871 
L 755.542403 435.144892 
L 755.74032 435.144892 
L 755.861268 433.721871 
L 756.498999 433.721871 
L 756.586962 432.298849 
L 756.608953 433.721871 
L 757.884414 433.721871 
L 758.005363 435.144892 
L 758.753047 435.144892 
L 758.884992 433.721871 
L 759.445755 433.721871 
L 759.566704 432.298849 
L 759.951541 432.298849 
L 760.07249 433.721871 
L 760.391355 433.721871 
L 760.501309 432.298849 
L 760.743207 432.298849 
L 760.864156 433.721871 
L 761.292975 433.721871 
L 761.424919 432.298849 
L 761.666817 432.298849 
L 761.787766 433.721871 
L 762.348529 433.721871 
L 762.458482 432.298849 
L 763.173181 432.298849 
L 763.29413 433.721871 
L 763.426074 433.721871 
L 763.470055 435.144892 
L 763.536027 433.721871 
L 764.019823 433.721871 
L 764.151767 432.298849 
L 764.448642 432.298849 
L 764.569591 433.721871 
L 765.438224 433.721871 
L 765.548178 435.144892 
L 765.61415 435.144892 
L 765.735099 433.721871 
L 765.768085 433.721871 
L 765.889034 432.298849 
L 766.262876 432.298849 
L 766.39482 433.721871 
L 766.438802 433.721871 
L 766.55975 432.298849 
L 766.889611 432.298849 
L 767.01056 433.721871 
L 767.417388 433.721871 
L 767.527342 432.298849 
L 768.088105 432.298849 
L 768.209054 433.721871 
L 768.264031 433.721871 
L 768.373984 435.144892 
L 768.494933 433.721871 
L 768.637873 433.721871 
L 768.747826 432.298849 
L 769.275604 432.298849 
L 769.407548 433.721871 
L 769.78139 433.721871 
L 769.803381 435.144892 
L 769.891343 433.721871 
L 770.001297 433.721871 
L 770.122246 432.298849 
L 770.803958 432.298849 
L 770.924907 433.721871 
L 771.045856 433.721871 
L 771.166805 432.298849 
L 771.441689 432.298849 
L 771.573633 433.721871 
L 772.222359 433.721871 
L 772.354303 430.875827 
L 772.640183 430.875827 
L 772.761132 432.298849 
L 773.310899 432.298849 
L 773.431848 433.721871 
L 774.608351 433.721871 
L 774.7293 432.298849 
L 774.795273 432.298849 
L 774.916221 430.875827 
L 774.993189 430.875827 
L 775.114138 429.452806 
L 775.334045 429.452806 
L 775.465989 432.298849 
L 775.476985 432.298849 
L 775.597934 433.721871 
L 776.059739 433.721871 
L 776.180687 432.298849 
L 777.005339 432.298849 
L 777.126288 433.721871 
L 778.544689 433.721871 
L 778.676633 435.144892 
L 778.720615 435.144892 
L 778.841564 433.721871 
L 781.612394 433.721871 
L 781.722347 435.144892 
L 782.107185 435.144892 
L 782.228134 433.721871 
L 783.778479 433.721871 
L 783.899428 435.144892 
L 783.998386 435.144892 
L 784.119335 433.721871 
L 786.681253 433.721871 
L 786.802202 435.144892 
L 787.571877 435.144892 
L 787.68183 433.721871 
L 787.879747 433.721871 
L 788.011691 432.298849 
L 788.363543 432.298849 
L 788.473496 433.721871 
L 788.968287 433.721871 
L 789.089236 432.298849 
L 789.781944 432.298849 
L 789.891897 433.721871 
L 791.277312 433.721871 
L 791.409256 435.144892 
L 791.442242 435.144892 
L 791.563191 433.721871 
L 792.046987 433.721871 
L 792.156941 432.298849 
L 792.321871 432.298849 
L 792.453815 430.875827 
L 792.662727 430.875827 
L 792.794671 432.298849 
L 792.805667 432.298849 
L 792.91562 430.875827 
L 793.212495 430.875827 
L 793.333444 432.298849 
L 793.355434 432.298849 
L 793.476383 430.875827 
L 793.872216 430.875827 
L 793.993165 432.298849 
L 794.059137 430.875827 
L 794.092123 432.298849 
L 794.443975 432.298849 
L 794.564924 433.721871 
L 794.630896 433.721871 
L 794.751845 435.144892 
L 794.773835 435.144892 
L 794.894784 433.721871 
L 797.434712 433.721871 
L 797.566656 435.144892 
L 799.117001 435.144892 
L 799.23795 433.721871 
L 800.953226 433.721871 
L 801.074175 435.144892 
L 803.295237 435.144892 
L 803.416186 433.721871 
L 805.219424 433.721871 
L 805.351369 435.144892 
L 806.659816 435.144892 
L 806.79176 433.721871 
L 807.286551 433.721871 
L 807.4075 435.144892 
L 810.002404 435.144892 
L 810.112358 433.721871 
L 810.387242 433.721871 
L 810.497195 435.144892 
L 810.728098 435.144892 
L 810.849047 433.721871 
L 811.640713 433.721871 
L 811.761661 435.144892 
L 812.685271 435.144892 
L 812.817216 433.721871 
L 814.301589 433.721871 
L 814.422538 435.144892 
L 817.171377 435.144892 
L 817.292326 433.721871 
L 817.622187 433.721871 
L 817.754131 435.144892 
L 818.127973 435.144892 
L 818.248922 433.721871 
L 818.776699 433.721871 
L 818.908643 435.144892 
L 819.12855 435.144892 
L 819.260495 433.721871 
L 819.568365 433.721871 
L 819.689314 435.144892 
L 821.844403 435.144892 
L 821.976348 433.721871 
L 822.680051 433.721871 
L 822.746023 435.144892 
L 822.779009 433.721871 
L 823.328777 433.721871 
L 823.449726 432.298849 
L 823.471716 432.298849 
L 823.592665 433.721871 
L 824.263382 433.721871 
L 824.373335 432.298849 
L 824.50528 433.721871 
L 825.472871 433.721871 
L 825.604815 435.144892 
L 825.615811 435.144892 
L 825.73676 433.721871 
L 827.056203 433.721871 
L 827.188147 435.144892 
L 827.353077 435.144892 
L 827.474026 433.721871 
L 827.671942 433.721871 
L 827.781896 435.144892 
L 830.035944 435.144892 
L 830.156893 433.721871 
L 830.233861 433.721871 
L 830.354809 432.298849 
L 830.431777 432.298849 
L 830.552726 433.721871 
L 830.662679 433.721871 
L 830.783628 435.144892 
L 831.124484 435.144892 
L 831.245433 433.721871 
L 831.696243 433.721871 
L 831.817192 435.144892 
L 834.68698 435.144892 
L 834.807929 436.567914 
L 834.928878 435.144892 
L 835.44566 435.144892 
L 835.566609 433.721871 
L 836.457232 433.721871 
L 836.567186 435.144892 
L 836.688135 433.721871 
L 836.765102 433.721871 
L 836.886051 432.298849 
L 836.98501 432.298849 
L 837.105958 433.721871 
L 837.336861 433.721871 
L 837.45781 435.144892 
L 838.491373 435.144892 
L 838.612322 433.721871 
L 839.052137 433.721871 
L 839.173085 435.144892 
L 839.513942 435.144892 
L 839.63489 433.721871 
L 840.0857 433.721871 
L 840.206649 435.144892 
L 840.855375 435.144892 
L 840.976324 433.721871 
L 841.515096 433.721871 
L 841.62505 435.144892 
L 841.745999 433.721871 
L 842.482688 433.721871 
L 842.603637 435.144892 
L 845.17655 435.144892 
L 845.297499 433.721871 
L 845.93523 433.721871 
L 846.056179 435.144892 
L 846.561965 435.144892 
L 846.682914 433.721871 
L 847.375622 433.721871 
L 847.49657 435.144892 
L 849.640665 435.144892 
L 849.761614 433.721871 
L 850.542284 433.721871 
L 850.663233 435.144892 
L 851.399922 435.144892 
L 851.520871 433.721871 
L 851.872722 433.721871 
L 851.993671 435.144892 
L 852.11462 433.721871 
L 852.609411 433.721871 
L 852.719365 432.298849 
L 852.840314 433.721871 
L 853.115198 433.721871 
L 853.236147 435.144892 
L 854.159757 435.144892 
L 854.280705 433.721871 
L 854.775497 433.721871 
L 854.896445 435.144892 
L 855.138343 435.144892 
L 855.270288 433.721871 
L 855.765079 433.721871 
L 855.886028 435.144892 
L 856.87561 435.144892 
L 856.996559 433.721871 
L 857.535331 433.721871 
L 857.65628 435.144892 
L 857.711257 435.144892 
L 857.832206 433.721871 
L 858.766811 433.721871 
L 858.88776 435.144892 
L 859.283593 435.144892 
L 859.404542 433.721871 
L 860.064263 433.721871 
L 860.185212 432.298849 
L 860.482087 432.298849 
L 860.603036 433.721871 
L 861.119817 433.721871 
L 861.240766 435.144892 
L 861.361715 433.721871 
L 861.900488 433.721871 
L 862.021437 435.144892 
L 862.516228 435.144892 
L 862.637176 433.721871 
L 862.956042 433.721871 
L 863.076991 432.298849 
L 863.175949 432.298849 
L 863.296898 433.721871 
L 863.81368 433.721871 
L 863.934629 435.144892 
L 864.044582 435.144892 
L 864.165531 433.721871 
L 865.155113 433.721871 
L 865.276062 432.298849 
L 865.539951 432.298849 
L 865.6609 433.721871 
L 866.881384 433.721871 
L 867.002333 435.144892 
L 867.783003 435.144892 
L 867.903952 433.721871 
L 868.45372 433.721871 
L 868.464715 435.144892 
L 868.563674 433.721871 
L 869.355339 433.721871 
L 869.476288 435.144892 
L 869.817144 435.144892 
L 869.938093 433.721871 
L 870.344921 433.721871 
L 870.46587 432.298849 
L 870.817722 432.298849 
L 870.938671 433.721871 
L 870.960661 433.721871 
L 871.08161 435.144892 
L 872.522002 435.144892 
L 872.642951 433.721871 
L 873.082765 433.721871 
L 873.203714 435.144892 
L 873.445612 435.144892 
L 873.566561 433.721871 
L 873.775473 433.721871 
L 873.896422 432.298849 
L 874.116329 432.298849 
L 874.237278 433.721871 
L 874.644106 433.721871 
L 874.666097 435.144892 
L 874.754059 433.721871 
L 876.051512 433.721871 
L 876.17246 435.144892 
L 876.260423 435.144892 
L 876.392368 432.298849 
L 876.7882 432.298849 
L 876.909149 433.721871 
L 876.93114 433.721871 
L 877.052089 435.144892 
L 877.392945 435.144892 
L 877.513894 433.721871 
L 878.107643 433.721871 
L 878.228592 435.144892 
L 878.382527 435.144892 
L 878.503476 433.721871 
L 878.954286 433.721871 
L 879.042249 432.298849 
L 879.064239 433.721871 
L 880.00984 433.721871 
L 880.086807 435.144892 
L 880.119794 433.721871 
L 880.988427 433.721871 
L 881.109376 435.144892 
L 881.472222 435.144892 
L 881.593171 433.721871 
L 882.032986 433.721871 
L 882.153934 435.144892 
L 884.166085 435.144892 
L 884.287034 433.721871 
L 884.968746 433.721871 
L 885.089695 435.144892 
L 885.57349 435.144892 
L 885.694439 433.721871 
L 885.826384 433.721871 
L 885.947333 432.298849 
L 886.18923 432.298849 
L 886.310179 433.721871 
L 886.442124 433.721871 
L 886.563072 435.144892 
L 887.431706 435.144892 
L 887.552655 433.721871 
L 887.970478 433.721871 
L 888.091427 432.298849 
L 888.135408 432.298849 
L 888.256357 433.721871 
L 888.531241 433.721871 
L 888.65219 435.144892 
L 888.806125 435.144892 
L 888.927074 433.721871 
L 889.784712 433.721871 
L 889.872675 432.298849 
L 889.894666 433.721871 
L 890.411447 433.721871 
L 890.433438 435.144892 
L 890.521401 433.721871 
L 891.477997 433.721871 
L 891.598946 435.144892 
L 892.137718 435.144892 
L 892.258667 433.721871 
L 893.940957 433.721871 
L 894.017924 435.144892 
L 894.05091 433.721871 
L 894.864567 433.721871 
L 894.930539 435.144892 
L 894.97452 433.721871 
L 895.788177 433.721871 
L 895.865144 435.144892 
L 895.89813 433.721871 
L 896.722782 433.721871 
L 896.843731 435.144892 
L 896.975675 435.144892 
L 897.085629 432.298849 
L 897.184587 432.298849 
L 897.305536 430.875827 
L 897.547434 430.875827 
L 897.679378 433.721871 
L 897.767341 433.721871 
L 897.855304 432.298849 
L 897.877294 433.721871 
L 898.624979 433.721871 
L 898.745928 435.144892 
L 899.834468 435.144892 
L 899.955417 433.721871 
L 900.736087 433.721871 
L 900.857036 435.144892 
L 901.010971 435.144892 
L 901.13192 433.721871 
L 902.05553 433.721871 
L 902.176479 432.298849 
L 902.3634 432.298849 
L 902.484349 433.721871 
L 902.715251 433.721871 
L 902.8362 435.144892 
L 902.957149 435.144892 
L 903.078098 433.721871 
L 903.627866 433.721871 
L 903.748815 435.144892 
L 904.133652 435.144892 
L 904.254601 433.721871 
L 905.288165 433.721871 
L 905.409114 435.144892 
L 905.563049 435.144892 
L 905.683998 433.721871 
L 906.123812 433.721871 
L 906.244761 435.144892 
L 906.706566 435.144892 
L 906.827515 433.721871 
L 907.322306 433.721871 
L 907.443255 435.144892 
L 908.278902 435.144892 
L 908.399851 433.721871 
L 909.081563 433.721871 
L 909.202512 435.144892 
L 909.411424 435.144892 
L 909.532372 433.721871 
L 910.642903 433.721871 
L 910.763852 435.144892 
L 911.412578 435.144892 
L 911.533527 433.721871 
L 912.0723 433.721871 
L 912.193249 435.144892 
L 912.732021 435.144892 
L 912.85297 433.721871 
L 914.172413 433.721871 
L 914.293362 435.144892 
L 915.909679 435.144892 
L 916.030628 433.721871 
L 916.470442 433.721871 
L 916.591391 435.144892 
L 916.602387 435.144892 
L 916.723336 433.721871 
L 917.141159 433.721871 
L 917.262108 432.298849 
L 917.383057 433.721871 
L 917.504006 432.298849 
L 917.94382 432.298849 
L 918.064769 433.721871 
L 919.076342 433.721871 
L 919.197291 435.144892 
L 919.516156 435.144892 
L 919.637105 433.721871 
L 921.033515 433.721871 
L 921.154464 432.298849 
L 921.286409 432.298849 
L 921.319395 430.875827 
L 921.396362 432.298849 
L 921.561293 432.298849 
L 921.682241 433.721871 
L 923.969276 433.721871 
L 924.046243 435.144892 
L 924.079229 433.721871 
L 924.618002 433.721871 
L 924.738951 435.144892 
L 924.749946 435.144892 
L 924.870895 433.721871 
L 925.596588 433.721871 
L 925.717537 435.144892 
L 927.81765 435.144892 
L 927.938599 433.721871 
L 928.378414 433.721871 
L 928.499363 435.144892 
L 929.477949 435.144892 
L 929.598898 433.721871 
L 930.181652 433.721871 
L 930.225634 435.144892 
L 930.291606 433.721871 
L 930.533504 433.721871 
L 930.654452 435.144892 
L 930.797392 435.144892 
L 930.918341 433.721871 
L 930.929336 433.721871 
L 931.050285 430.875827 
L 931.4901 430.875827 
L 931.611049 433.721871 
L 932.215793 433.721871 
L 932.336742 435.144892 
L 932.732575 435.144892 
L 932.853524 433.721871 
L 933.392296 433.721871 
L 933.513245 435.144892 
L 933.711162 435.144892 
L 933.832111 433.721871 
L 934.755721 433.721871 
L 934.843683 435.144892 
L 934.865674 433.721871 
L 935.932224 433.721871 
L 936.053173 432.298849 
L 936.29507 432.298849 
L 936.416019 433.721871 
L 937.372615 433.721871 
L 937.493564 435.144892 
L 937.636504 435.144892 
L 937.757453 433.721871 
L 938.351202 433.721871 
L 938.472151 435.144892 
L 939.032914 435.144892 
L 939.153863 433.721871 
L 939.593677 433.721871 
L 939.714626 435.144892 
L 940.506292 435.144892 
L 940.627241 433.721871 
L 940.979092 433.721871 
L 941.045064 435.144892 
L 941.089046 433.721871 
L 942.419484 433.721871 
L 942.540433 435.144892 
L 942.672377 435.144892 
L 942.793326 433.721871 
L 943.200154 433.721871 
L 943.321103 435.144892 
L 944.497606 435.144892 
L 944.618555 433.721871 
L 946.542743 433.721871 
L 946.663692 435.144892 
L 947.653274 435.144892 
L 947.774223 433.721871 
L 948.708828 433.721871 
L 948.829777 435.144892 
L 949.456512 435.144892 
L 949.577461 433.721871 
L 951.028848 433.721871 
L 951.149797 435.144892 
L 951.23776 435.144892 
L 951.358709 433.721871 
L 951.798523 433.721871 
L 951.919472 435.144892 
L 951.930468 435.144892 
L 952.051416 433.721871 
L 952.788105 433.721871 
L 952.909054 435.144892 
L 953.821669 435.144892 
L 953.887641 436.567914 
L 953.898636 442.26 
L 953.898636 442.26 
" clip-path="url(#p6ac326954f)" style="fill: none; stroke: #0000ff; stroke-width: 1.5; stroke-linecap: square"/>
   </g>
   <g id="line2d_17">
    <path d="M 403.207196 462.04 
L 403.207196 26.88 
" clip-path="url(#p6ac326954f)" style="fill: none; stroke-dasharray: 5.55,2.4; stroke-dashoffset: 0; stroke: #000000; stroke-width: 1.5"/>
   </g>
   <g id="line2d_18">
    <path d="M 44.57 430.875827 
L 997.2 430.875827 
" clip-path="url(#p6ac326954f)" style="fill: none; stroke-dasharray: 5.55,2.4; stroke-dashoffset: 0; stroke: #008000; stroke-width: 1.5"/>
   </g>
   <g id="line2d_19">
    <path d="M 44.57 432.555092 
L 997.2 432.555092 
" clip-path="url(#p6ac326954f)" style="fill: none; stroke-dasharray: 1.5,2.475; stroke-dashoffset: 0; stroke: #0000ff; stroke-width: 1.5"/>
   </g>
   <g id="line2d_20">
    <path d="M 44.57 430.598954 
L 997.2 430.598954 
" clip-path="url(#p6ac326954f)" style="fill: none; stroke-dasharray: 1.5,2.475; stroke-dashoffset: 0; stroke: #ff0000; stroke-width: 1.5"/>
   </g>
   <g id="patch_3">
    <path d="M 44.57 462.04 
L 44.57 26.88 
" style="fill: none; stroke: #000000; stroke-width: 0.8; stroke-linejoin: miter; stroke-linecap: square"/>
   </g>
   <g id="patch_4">
    <path d="M 997.2 462.04 
L 997.2 26.88 
" style="fill: none; stroke: #000000; stroke-width: 0.8; stroke-linejoin: miter; stroke-linecap: square"/>
   </g>
   <g id="patch_5">
    <path d="M 44.57 462.04 
L 997.2 462.04 
" style="fill: none; stroke: #000000; stroke-width: 0.8; stroke-linejoin: miter; stroke-linecap: square"/>
   </g>
   <g id="patch_6">
    <path d="M 44.57 26.88 
L 997.2 26.88 
" style="fill: none; stroke: #000000; stroke-width: 0.8; stroke-linejoin: miter; stroke-linecap: square"/>
   </g>
   <g id="text_18">
    <!-- Gradient Difference -->
    <g transform="translate(461.843125 20.88)scale(0.12 -0.12)">
     <defs>
      <path id="DejaVuSans-44" d="M 1259 4147 
L 1259 519 
L 2022 519 
Q 2988 519 3436 956 
Q 3884 1394 3884 2338 
Q 3884 3275 3436 3711 
Q 2988 4147 2022 4147 
L 1259 4147 
z
M 628 4666 
L 1925 4666 
Q 3281 4666 3915 4102 
Q 4550 3538 4550 2338 
Q 4550 1131 3912 565 
Q 3275 0 1925 0 
L 628 0 
L 628 4666 
z
" transform="scale(0.015625)"/>
      <path id="DejaVuSans-66" d="M 2375 4863 
L 2375 4384 
L 1825 4384 
Q 1516 4384 1395 4259 
Q 1275 4134 1275 3809 
L 1275 3500 
L 2222 3500 
L 2222 3053 
L 1275 3053 
L 1275 0 
L 697 0 
L 697 3053 
L 147 3053 
L 147 3500 
L 697 3500 
L 697 3744 
Q 697 4328 969 4595 
Q 1241 4863 1831 4863 
L 2375 4863 
z
" transform="scale(0.015625)"/>
      <path id="DejaVuSans-63" d="M 3122 3366 
L 3122 2828 
Q 2878 2963 2633 3030 
Q 2388 3097 2138 3097 
Q 1578 3097 1268 2742 
Q 959 2388 959 1747 
Q 959 1106 1268 751 
Q 1578 397 2138 397 
Q 2388 397 2633 464 
Q 2878 531 3122 666 
L 3122 134 
Q 2881 22 2623 -34 
Q 2366 -91 2075 -91 
Q 1284 -91 818 406 
Q 353 903 353 1747 
Q 353 2603 823 3093 
Q 1294 3584 2113 3584 
Q 2378 3584 2631 3529 
Q 2884 3475 3122 3366 
z
" transform="scale(0.015625)"/>
     </defs>
     <use xlink:href="#DejaVuSans-47"/>
     <use xlink:href="#DejaVuSans-72" x="77.490234"/>
     <use xlink:href="#DejaVuSans-61" x="118.603516"/>
     <use xlink:href="#DejaVuSans-64" x="179.882812"/>
     <use xlink:href="#DejaVuSans-69" x="243.359375"/>
     <use xlink:href="#DejaVuSans-65" x="271.142578"/>
     <use xlink:href="#DejaVuSans-6e" x="332.666016"/>
     <use xlink:href="#DejaVuSans-74" x="396.044922"/>
     <use xlink:href="#DejaVuSans-20" x="435.253906"/>
     <use xlink:href="#DejaVuSans-44" x="467.041016"/>
     <use xlink:href="#DejaVuSans-69" x="544.042969"/>
     <use xlink:href="#DejaVuSans-66" x="571.826172"/>
     <use xlink:href="#DejaVuSans-66" x="607.03125"/>
     <use xlink:href="#DejaVuSans-65" x="642.236328"/>
     <use xlink:href="#DejaVuSans-72" x="703.759766"/>
     <use xlink:href="#DejaVuSans-65" x="742.623047"/>
     <use xlink:href="#DejaVuSans-6e" x="804.146484"/>
     <use xlink:href="#DejaVuSans-63" x="867.525391"/>
     <use xlink:href="#DejaVuSans-65" x="922.505859"/>
    </g>
   </g>
   <g id="legend_1">
    <g id="patch_7">
     <path d="M 818.179688 108.270625 
L 990.2 108.270625 
Q 992.2 108.270625 992.2 106.270625 
L 992.2 33.88 
Q 992.2 31.88 990.2 31.88 
L 818.179688 31.88 
Q 816.179688 31.88 816.179688 33.88 
L 816.179688 106.270625 
Q 816.179688 108.270625 818.179688 108.270625 
z
" style="fill: #ffffff; opacity: 0.8; stroke: #cccccc; stroke-linejoin: miter"/>
    </g>
    <g id="line2d_21">
     <path d="M 820.179688 39.978437 
L 830.179688 39.978437 
L 840.179688 39.978437 
" style="fill: none; stroke: #0000ff; stroke-width: 1.5; stroke-linecap: square"/>
    </g>
    <g id="text_19">
     <!-- Gradient Difference Stage 2 -->
     <g transform="translate(848.179688 43.478437)scale(0.1 -0.1)">
      <defs>
       <path id="DejaVuSans-53" d="M 3425 4513 
L 3425 3897 
Q 3066 4069 2747 4153 
Q 2428 4238 2131 4238 
Q 1616 4238 1336 4038 
Q 1056 3838 1056 3469 
Q 1056 3159 1242 3001 
Q 1428 2844 1947 2747 
L 2328 2669 
Q 3034 2534 3370 2195 
Q 3706 1856 3706 1288 
Q 3706 609 3251 259 
Q 2797 -91 1919 -91 
Q 1588 -91 1214 -16 
Q 841 59 441 206 
L 441 856 
Q 825 641 1194 531 
Q 1563 422 1919 422 
Q 2459 422 2753 634 
Q 3047 847 3047 1241 
Q 3047 1584 2836 1778 
Q 2625 1972 2144 2069 
L 1759 2144 
Q 1053 2284 737 2584 
Q 422 2884 422 3419 
Q 422 4038 858 4394 
Q 1294 4750 2059 4750 
Q 2388 4750 2728 4690 
Q 3069 4631 3425 4513 
z
" transform="scale(0.015625)"/>
       <path id="DejaVuSans-67" d="M 2906 1791 
Q 2906 2416 2648 2759 
Q 2391 3103 1925 3103 
Q 1463 3103 1205 2759 
Q 947 2416 947 1791 
Q 947 1169 1205 825 
Q 1463 481 1925 481 
Q 2391 481 2648 825 
Q 2906 1169 2906 1791 
z
M 3481 434 
Q 3481 -459 3084 -895 
Q 2688 -1331 1869 -1331 
Q 1566 -1331 1297 -1286 
Q 1028 -1241 775 -1147 
L 775 -588 
Q 1028 -725 1275 -790 
Q 1522 -856 1778 -856 
Q 2344 -856 2625 -561 
Q 2906 -266 2906 331 
L 2906 616 
Q 2728 306 2450 153 
Q 2172 0 1784 0 
Q 1141 0 747 490 
Q 353 981 353 1791 
Q 353 2603 747 3093 
Q 1141 3584 1784 3584 
Q 2172 3584 2450 3431 
Q 2728 3278 2906 2969 
L 2906 3500 
L 3481 3500 
L 3481 434 
z
" transform="scale(0.015625)"/>
      </defs>
      <use xlink:href="#DejaVuSans-47"/>
      <use xlink:href="#DejaVuSans-72" x="77.490234"/>
      <use xlink:href="#DejaVuSans-61" x="118.603516"/>
      <use xlink:href="#DejaVuSans-64" x="179.882812"/>
      <use xlink:href="#DejaVuSans-69" x="243.359375"/>
      <use xlink:href="#DejaVuSans-65" x="271.142578"/>
      <use xlink:href="#DejaVuSans-6e" x="332.666016"/>
      <use xlink:href="#DejaVuSans-74" x="396.044922"/>
      <use xlink:href="#DejaVuSans-20" x="435.253906"/>
      <use xlink:href="#DejaVuSans-44" x="467.041016"/>
      <use xlink:href="#DejaVuSans-69" x="544.042969"/>
      <use xlink:href="#DejaVuSans-66" x="571.826172"/>
      <use xlink:href="#DejaVuSans-66" x="607.03125"/>
      <use xlink:href="#DejaVuSans-65" x="642.236328"/>
      <use xlink:href="#DejaVuSans-72" x="703.759766"/>
      <use xlink:href="#DejaVuSans-65" x="742.623047"/>
      <use xlink:href="#DejaVuSans-6e" x="804.146484"/>
      <use xlink:href="#DejaVuSans-63" x="867.525391"/>
      <use xlink:href="#DejaVuSans-65" x="922.505859"/>
      <use xlink:href="#DejaVuSans-20" x="984.029297"/>
      <use xlink:href="#DejaVuSans-53" x="1015.816406"/>
      <use xlink:href="#DejaVuSans-74" x="1079.292969"/>
      <use xlink:href="#DejaVuSans-61" x="1118.501953"/>
      <use xlink:href="#DejaVuSans-67" x="1179.78125"/>
      <use xlink:href="#DejaVuSans-65" x="1243.257812"/>
      <use xlink:href="#DejaVuSans-20" x="1304.78125"/>
      <use xlink:href="#DejaVuSans-32" x="1336.568359"/>
     </g>
    </g>
    <g id="line2d_22">
     <path d="M 820.179688 54.656562 
L 830.179688 54.656562 
L 840.179688 54.656562 
" style="fill: none; stroke-dasharray: 5.55,2.4; stroke-dashoffset: 0; stroke: #000000; stroke-width: 1.5"/>
    </g>
    <g id="text_20">
     <!-- Post heat stable -->
     <g transform="translate(848.179688 58.156562)scale(0.1 -0.1)">
      <defs>
       <path id="DejaVuSans-50" d="M 1259 4147 
L 1259 2394 
L 2053 2394 
Q 2494 2394 2734 2622 
Q 2975 2850 2975 3272 
Q 2975 3691 2734 3919 
Q 2494 4147 2053 4147 
L 1259 4147 
z
M 628 4666 
L 2053 4666 
Q 2838 4666 3239 4311 
Q 3641 3956 3641 3272 
Q 3641 2581 3239 2228 
Q 2838 1875 2053 1875 
L 1259 1875 
L 1259 0 
L 628 0 
L 628 4666 
z
" transform="scale(0.015625)"/>
       <path id="DejaVuSans-6f" d="M 1959 3097 
Q 1497 3097 1228 2736 
Q 959 2375 959 1747 
Q 959 1119 1226 758 
Q 1494 397 1959 397 
Q 2419 397 2687 759 
Q 2956 1122 2956 1747 
Q 2956 2369 2687 2733 
Q 2419 3097 1959 3097 
z
M 1959 3584 
Q 2709 3584 3137 3096 
Q 3566 2609 3566 1747 
Q 3566 888 3137 398 
Q 2709 -91 1959 -91 
Q 1206 -91 779 398 
Q 353 888 353 1747 
Q 353 2609 779 3096 
Q 1206 3584 1959 3584 
z
" transform="scale(0.015625)"/>
       <path id="DejaVuSans-68" d="M 3513 2113 
L 3513 0 
L 2938 0 
L 2938 2094 
Q 2938 2591 2744 2837 
Q 2550 3084 2163 3084 
Q 1697 3084 1428 2787 
Q 1159 2491 1159 1978 
L 1159 0 
L 581 0 
L 581 4863 
L 1159 4863 
L 1159 2956 
Q 1366 3272 1645 3428 
Q 1925 3584 2291 3584 
Q 2894 3584 3203 3211 
Q 3513 2838 3513 2113 
z
" transform="scale(0.015625)"/>
       <path id="DejaVuSans-62" d="M 3116 1747 
Q 3116 2381 2855 2742 
Q 2594 3103 2138 3103 
Q 1681 3103 1420 2742 
Q 1159 2381 1159 1747 
Q 1159 1113 1420 752 
Q 1681 391 2138 391 
Q 2594 391 2855 752 
Q 3116 1113 3116 1747 
z
M 1159 2969 
Q 1341 3281 1617 3432 
Q 1894 3584 2278 3584 
Q 2916 3584 3314 3078 
Q 3713 2572 3713 1747 
Q 3713 922 3314 415 
Q 2916 -91 2278 -91 
Q 1894 -91 1617 61 
Q 1341 213 1159 525 
L 1159 0 
L 581 0 
L 581 4863 
L 1159 4863 
L 1159 2969 
z
" transform="scale(0.015625)"/>
       <path id="DejaVuSans-6c" d="M 603 4863 
L 1178 4863 
L 1178 0 
L 603 0 
L 603 4863 
z
" transform="scale(0.015625)"/>
      </defs>
      <use xlink:href="#DejaVuSans-50"/>
      <use xlink:href="#DejaVuSans-6f" x="56.677734"/>
      <use xlink:href="#DejaVuSans-73" x="117.859375"/>
      <use xlink:href="#DejaVuSans-74" x="169.958984"/>
      <use xlink:href="#DejaVuSans-20" x="209.167969"/>
      <use xlink:href="#DejaVuSans-68" x="240.955078"/>
      <use xlink:href="#DejaVuSans-65" x="304.333984"/>
      <use xlink:href="#DejaVuSans-61" x="365.857422"/>
      <use xlink:href="#DejaVuSans-74" x="427.136719"/>
      <use xlink:href="#DejaVuSans-20" x="466.345703"/>
      <use xlink:href="#DejaVuSans-73" x="498.132812"/>
      <use xlink:href="#DejaVuSans-74" x="550.232422"/>
      <use xlink:href="#DejaVuSans-61" x="589.441406"/>
      <use xlink:href="#DejaVuSans-62" x="650.720703"/>
      <use xlink:href="#DejaVuSans-6c" x="714.197266"/>
      <use xlink:href="#DejaVuSans-65" x="741.980469"/>
     </g>
    </g>
    <g id="line2d_23">
     <path d="M 820.179688 69.334687 
L 830.179688 69.334687 
L 840.179688 69.334687 
" style="fill: none; stroke-dasharray: 5.55,2.4; stroke-dashoffset: 0; stroke: #008000; stroke-width: 1.5"/>
    </g>
    <g id="text_21">
     <!-- Spec Line Stage 2 -->
     <g transform="translate(848.179688 72.834687)scale(0.1 -0.1)">
      <defs>
       <path id="DejaVuSans-70" d="M 1159 525 
L 1159 -1331 
L 581 -1331 
L 581 3500 
L 1159 3500 
L 1159 2969 
Q 1341 3281 1617 3432 
Q 1894 3584 2278 3584 
Q 2916 3584 3314 3078 
Q 3713 2572 3713 1747 
Q 3713 922 3314 415 
Q 2916 -91 2278 -91 
Q 1894 -91 1617 61 
Q 1341 213 1159 525 
z
M 3116 1747 
Q 3116 2381 2855 2742 
Q 2594 3103 2138 3103 
Q 1681 3103 1420 2742 
Q 1159 2381 1159 1747 
Q 1159 1113 1420 752 
Q 1681 391 2138 391 
Q 2594 391 2855 752 
Q 3116 1113 3116 1747 
z
" transform="scale(0.015625)"/>
       <path id="DejaVuSans-4c" d="M 628 4666 
L 1259 4666 
L 1259 531 
L 3531 531 
L 3531 0 
L 628 0 
L 628 4666 
z
" transform="scale(0.015625)"/>
      </defs>
      <use xlink:href="#DejaVuSans-53"/>
      <use xlink:href="#DejaVuSans-70" x="63.476562"/>
      <use xlink:href="#DejaVuSans-65" x="126.953125"/>
      <use xlink:href="#DejaVuSans-63" x="188.476562"/>
      <use xlink:href="#DejaVuSans-20" x="243.457031"/>
      <use xlink:href="#DejaVuSans-4c" x="275.244141"/>
      <use xlink:href="#DejaVuSans-69" x="330.957031"/>
      <use xlink:href="#DejaVuSans-6e" x="358.740234"/>
      <use xlink:href="#DejaVuSans-65" x="422.119141"/>
      <use xlink:href="#DejaVuSans-20" x="483.642578"/>
      <use xlink:href="#DejaVuSans-53" x="515.429688"/>
      <use xlink:href="#DejaVuSans-74" x="578.90625"/>
      <use xlink:href="#DejaVuSans-61" x="618.115234"/>
      <use xlink:href="#DejaVuSans-67" x="679.394531"/>
      <use xlink:href="#DejaVuSans-65" x="742.871094"/>
      <use xlink:href="#DejaVuSans-20" x="804.394531"/>
      <use xlink:href="#DejaVuSans-32" x="836.181641"/>
     </g>
    </g>
    <g id="line2d_24">
     <path d="M 820.179688 84.012812 
L 830.179688 84.012812 
L 840.179688 84.012812 
" style="fill: none; stroke-dasharray: 1.5,2.475; stroke-dashoffset: 0; stroke: #0000ff; stroke-width: 1.5"/>
    </g>
    <g id="text_22">
     <!-- 1 Std Dev Stage 2 -->
     <g transform="translate(848.179688 87.512812)scale(0.1 -0.1)">
      <defs>
       <path id="DejaVuSans-76" d="M 191 3500 
L 800 3500 
L 1894 563 
L 2988 3500 
L 3597 3500 
L 2284 0 
L 1503 0 
L 191 3500 
z
" transform="scale(0.015625)"/>
      </defs>
      <use xlink:href="#DejaVuSans-31"/>
      <use xlink:href="#DejaVuSans-20" x="63.623047"/>
      <use xlink:href="#DejaVuSans-53" x="95.410156"/>
      <use xlink:href="#DejaVuSans-74" x="158.886719"/>
      <use xlink:href="#DejaVuSans-64" x="198.095703"/>
      <use xlink:href="#DejaVuSans-20" x="261.572266"/>
      <use xlink:href="#DejaVuSans-44" x="293.359375"/>
      <use xlink:href="#DejaVuSans-65" x="370.361328"/>
      <use xlink:href="#DejaVuSans-76" x="431.884766"/>
      <use xlink:href="#DejaVuSans-20" x="491.064453"/>
      <use xlink:href="#DejaVuSans-53" x="522.851562"/>
      <use xlink:href="#DejaVuSans-74" x="586.328125"/>
      <use xlink:href="#DejaVuSans-61" x="625.537109"/>
      <use xlink:href="#DejaVuSans-67" x="686.816406"/>
      <use xlink:href="#DejaVuSans-65" x="750.292969"/>
      <use xlink:href="#DejaVuSans-20" x="811.816406"/>
      <use xlink:href="#DejaVuSans-32" x="843.603516"/>
     </g>
    </g>
    <g id="line2d_25">
     <path d="M 820.179688 98.690937 
L 830.179688 98.690937 
L 840.179688 98.690937 
" style="fill: none; stroke-dasharray: 1.5,2.475; stroke-dashoffset: 0; stroke: #ff0000; stroke-width: 1.5"/>
    </g>
    <g id="text_23">
     <!-- 3 Std Dev Stage 2 -->
     <g transform="translate(848.179688 102.190937)scale(0.1 -0.1)">
      <use xlink:href="#DejaVuSans-33"/>
      <use xlink:href="#DejaVuSans-20" x="63.623047"/>
      <use xlink:href="#DejaVuSans-53" x="95.410156"/>
      <use xlink:href="#DejaVuSans-74" x="158.886719"/>
      <use xlink:href="#DejaVuSans-64" x="198.095703"/>
      <use xlink:href="#DejaVuSans-20" x="261.572266"/>
      <use xlink:href="#DejaVuSans-44" x="293.359375"/>
      <use xlink:href="#DejaVuSans-65" x="370.361328"/>
      <use xlink:href="#DejaVuSans-76" x="431.884766"/>
      <use xlink:href="#DejaVuSans-20" x="491.064453"/>
      <use xlink:href="#DejaVuSans-53" x="522.851562"/>
      <use xlink:href="#DejaVuSans-74" x="586.328125"/>
      <use xlink:href="#DejaVuSans-61" x="625.537109"/>
      <use xlink:href="#DejaVuSans-67" x="686.816406"/>
      <use xlink:href="#DejaVuSans-65" x="750.292969"/>
      <use xlink:href="#DejaVuSans-20" x="811.816406"/>
      <use xlink:href="#DejaVuSans-32" x="843.603516"/>
     </g>
    </g>
   </g>
  </g>
 </g>
 <defs>
  <clipPath id="p6ac326954f">
   <rect x="44.57" y="26.88" width="952.63" height="435.16"/>
  </clipPath>
 </defs>
</svg>
